<?xml version="1.0" encoding="UTF-8" standalone="no"?>
<svg
   width="800"
   height="600"
   version="1.1"
   id="svg14"
   sodipodi:docname="ground.svg"
   inkscape:version="1.2.2 (732a01da63, 2022-12-09)"
   xmlns:inkscape="http://www.inkscape.org/namespaces/inkscape"
   xmlns:sodipodi="http://sodipodi.sourceforge.net/DTD/sodipodi-0.dtd"
   xmlns="http://www.w3.org/2000/svg"
   xmlns:svg="http://www.w3.org/2000/svg">
  <defs
     id="defs18" />
  <sodipodi:namedview
     id="namedview16"
     pagecolor="#505050"
     bordercolor="#eeeeee"
     borderopacity="1"
     inkscape:showpageshadow="0"
     inkscape:pageopacity="0"
     inkscape:pagecheckerboard="0"
     inkscape:deskcolor="#505050"
     showgrid="false"
     inkscape:zoom="1.0076272"
     inkscape:cx="173.67535"
     inkscape:cy="420.29435"
     inkscape:window-width="1920"
     inkscape:window-height="1013"
     inkscape:window-x="1591"
     inkscape:window-y="-9"
     inkscape:window-maximized="1"
     inkscape:current-layer="g12" />
  <g
     id="g12">
    <path
       fill="#000000"
       d="m -0.40350877,558.05263 0.36842105,-0.0877 L 2,557 h 3 3 3 l 3.438596,-0.4386 C 15.43056,556.43488 16.82375,556.51373 19,556 c 0.97325,-0.22974 4,0 5,0 h 5 l 2.210526,-0.52632 C 32.183333,555.24206 33,555 34,555 h 3 5 l 2.649123,0.4386 c 0.98657,0.16334 1.868878,0.19564 3.175438,0.73684 C 48.748441,556.55813 50,556 51,556 h 3 4 l 3.175439,0.35088 L 66,556.4386 71,556 h 4 l 3.473684,0.4386 L 82,556 h 3 5 3 5 3 3 c 1,0 2.01291,0.16016 3,0 3.12144,-0.50653 4,-1 5,-1 h 4 6 7 c 2,0 4,-1 5,-1 h 5 4 3 4 3 4 4 6 4 5 5 4 3 3 5 3 4 3 3 5 6 6 4 3 3 5 3 6 c 1,0 2,-1 4,-1 h 3 c 1,0 2,-1 3,-1 h 3 3 c 1,0 3.29291,0.70709 4,0 0.70709,-0.70709 1,-1 2,-1 h 3 3 3 5 3 4 3 3 4 3 c 1,0 1.63751,0.25827 2.61404,0.47368 L 311,552 314.82456,552.26316 319,552 l 4.17544,-0.30702 4.04386,-0.30702 3.39474,-0.0438 L 335,552 h 8 l 7.08772,0.48246 L 359,552 l 5.13158,0.35088 4.17544,-0.57018 5.14035,-0.57017 3.29824,0.30701 4.21053,0.0439 4.08772,0.0439 2.95614,-0.35087 2.7807,-0.0877 c 0.9995,-0.0315 1.52632,-0.21053 2.4386,-0.38597 0.982,-0.18885 1.47415,-0.2395 2.7807,-0.7807 0.92389,-0.38269 2,0 4,0 1,0 0.8894,-0.0385 1.90351,-0.35088 C 402.85918,549.35477 404,549 405,549 c 1,0 1.86889,0.33067 3.17544,-0.21053 0.92389,-0.38269 2.10032,-0.19264 3.08772,-0.35087 L 414,548 l 3.70175,0.35088 2.47369,0.26316 L 423,548 h 3 l 4.96491,0.70175 3.56141,0.0877 h 3.82456 L 441.52632,548.5263 445,548.614 448.35088,548.5263 454,548 l 8.70175,0.61404 9.82457,0.61403 10.73684,-0.52632 H 491 c 3,0 4.72523,-0.38269 5.64912,0 C 497.95567,549.24295 501,549 502,549 h 4 4 c 2,0 2.69342,0.4588 4,1 1.84778,0.76538 3,0 5,0 1,0 2,1 4,1 h 11 12 11 6 5 3 c 2,0 4,1 6,1 h 7 10 6 4 3 3 5 9 7 4 3 4 6 10 10 7 8 c 3,0 4.07611,0.38269 5,0 1.30658,-0.5412 2,-1 3,-1 h 4 4 4 c 1,0 3,-1 5,-1 1,0 1.78114,-0.10792 3.08772,-0.64912 0.92389,-0.38269 2.46049,0.38354 3.4386,0.17544 H 717 h 3.17544 l 3.4386,0.43859 2.29824,0.70176 3.08772,-0.0877 6.26316,-0.61404 h 3.35088 l 9.5614,0.26316 6.60526,0.48245 8.09649,1.44738 6.04386,1.09648 4.04386,-0.35087 3.12281,0.2193 c 0.99754,0.07 2.77235,0.62447 3.74562,0.39473 2.17627,-0.51373 3.07936,0.1113 4.07894,0.14035 l 4.52631,0.8772 4.00001,0.57017 4.31579,1.49123 3.17543,0.96491 1.5965,-6.22807 2.82456,0.52632 L 808,548 h 3 1 2 l -14,52 H 0 Z"
       id="svg_3"
       sodipodi:nodetypes="ccccccssscssccssscccccccccccccsssccsscccccccccccccccccccccccccccsssscssscccccccccsscccccccccccccccccsssssssscccccccccccccccssscsssscccccssccccccccccccccccsssccssssccccccccccccsssccccccccccccc" />
  </g>
</svg>
