<?xml version="1.0" standalone="no"?>
<!DOCTYPE svg PUBLIC "-//W3C//DTD SVG 20010904//EN"
 "http://www.w3.org/TR/2001/REC-SVG-20010904/DTD/svg10.dtd">
<svg version="1.0" xmlns="http://www.w3.org/2000/svg"
 width="1280.000000pt" height="1139.000000pt" viewBox="0 0 1280.000000 1139.000000"
 preserveAspectRatio="xMidYMid meet">
<metadata>
Created by potrace 1.15, written by Peter Selinger 2001-2017
</metadata>
<g transform="translate(0.000000,1139.000000) scale(0.100000,-0.100000)"
fill="rgb(198.75,211.25,203.75)" stroke="none">
<path d="M7190 11384 c-81 -26 -130 -73 -116 -110 5 -14 15 -16 55 -11 50 6
96 38 119 83 10 18 8 23 -14 33 -14 6 -26 11 -27 10 -1 0 -9 -3 -17 -5z"/>
<path d="M6803 11237 c-18 -20 -23 -34 -25 -86 -2 -29 -7 -36 -46 -52 -25 -11
-42 -24 -40 -32 6 -17 87 -56 119 -57 20 0 28 -6 31 -25 7 -32 2 -35 -44 -35
-26 0 -38 -4 -38 -14 0 -8 -13 -24 -28 -34 -15 -11 -34 -31 -41 -45 -16 -31
-81 -38 -81 -8 0 30 -45 63 -93 68 -24 3 -47 1 -50 -4 -3 -5 21 -29 54 -53 32
-23 59 -47 59 -51 0 -15 -16 -10 -35 11 -22 25 -44 27 -23 3 33 -39 31 -43
-21 -43 -47 0 -50 2 -53 28 -2 19 -9 28 -25 30 -19 3 -42 32 -25 32 17 1 63
48 68 71 16 65 -10 116 -67 135 -31 11 -36 9 -76 -25 -27 -23 -59 -68 -89
-126 -26 -49 -48 -91 -49 -93 -1 -1 -17 12 -36 29 -30 28 -38 31 -81 27 -27
-3 -51 -8 -55 -12 -15 -14 14 -60 50 -79 23 -12 37 -26 37 -38 0 -12 7 -19 20
-19 19 0 19 -1 -2 -45 -13 -27 -29 -45 -39 -45 -9 0 -20 -10 -23 -22 -8 -32
-54 -64 -69 -49 -19 19 -37 12 -37 -14 0 -15 -6 -25 -15 -25 -28 0 -77 -54
-79 -87 -2 -42 -30 -70 -74 -75 -20 -3 -44 -7 -52 -9 -10 -2 -15 3 -15 15 0
10 -10 22 -23 27 -12 5 -22 13 -22 19 0 28 -83 87 -103 73 -6 -5 -30 -6 -52
-3 -29 4 -41 10 -43 24 -3 17 2 18 65 14 61 -4 73 -2 94 16 41 36 79 146 51
146 -11 0 -67 -60 -81 -86 -7 -15 -24 -24 -53 -28 -24 -4 -56 -13 -71 -21 -23
-12 -27 -12 -27 0 0 8 5 17 10 20 15 9 12 25 -5 25 -11 0 -15 11 -15 38 0 41
-11 59 -77 131 -45 48 -44 48 -73 1 -4 -8 -11 -12 -15 -8 -4 3 0 17 8 30 23
36 30 84 15 107 -7 12 -17 21 -22 21 -5 0 -15 8 -22 18 -10 13 -17 15 -31 6
-43 -26 -60 -124 -31 -181 11 -23 13 -34 4 -38 -6 -3 2 -3 19 1 29 5 29 5 12
-14 -21 -23 -63 -19 -90 9 -24 25 -35 24 -12 -1 18 -20 17 -20 -8 -20 -34 0
-34 -13 -2 -34 23 -15 24 -17 8 -44 -13 -23 -28 -31 -72 -40 -31 -7 -67 -15
-80 -19 -16 -4 -22 -2 -18 4 4 6 -4 14 -17 17 -18 4 -25 14 -29 43 -3 21 -10
58 -15 82 -9 40 -8 48 13 76 21 26 23 36 15 70 -14 59 -13 63 23 70 44 10 96
51 103 83 4 15 11 32 16 39 12 16 -64 28 -90 14 -14 -8 -24 -6 -38 4 -11 8
-26 15 -36 15 -11 0 -19 15 -28 53 -20 90 -19 88 -41 77 -24 -13 -25 -61 -3
-95 14 -22 14 -24 -6 -35 -17 -9 -20 -17 -15 -38 13 -48 15 -81 5 -87 -6 -3
-10 -2 -10 4 0 5 -13 8 -29 6 -29 -4 -48 16 -35 36 3 5 -6 13 -20 19 -14 5
-26 15 -26 22 0 8 -3 9 -8 3 -4 -5 -22 -11 -40 -11 -50 -3 -81 -28 -88 -73 -4
-28 -10 -38 -20 -34 -8 3 -14 0 -14 -6 0 -7 7 -14 15 -17 26 -11 16 -21 -25
-27 -51 -7 -90 -31 -90 -57 0 -19 -1 -19 -40 -4 -24 10 -53 14 -70 10 -17 -3
-30 -2 -30 2 0 4 -9 13 -20 20 -18 11 -25 10 -49 -8 -16 -11 -43 -20 -59 -20
-26 0 -31 -5 -37 -31 -8 -34 -28 -47 -48 -31 -28 23 -56 -24 -52 -86 3 -39 1
-43 -28 -56 -40 -16 -53 -32 -62 -76 -11 -57 -16 -70 -26 -70 -6 0 -7 4 -4 10
3 5 8 27 11 49 5 43 13 38 -101 64 -54 12 -58 14 -39 25 16 8 29 8 51 0 42
-16 98 -2 123 29 19 24 19 28 5 42 -11 11 -33 16 -69 15 -50 -1 -53 0 -64 29
-9 24 -8 34 3 51 8 11 15 39 15 63 0 23 5 54 10 69 10 25 12 26 29 10 9 -9 25
-16 34 -16 13 0 17 -9 17 -35 0 -32 2 -35 19 -25 11 5 25 27 32 47 6 21 18 48
26 59 13 20 11 24 -14 42 l-27 20 42 21 c23 12 42 24 42 26 0 3 -22 -6 -50
-20 -63 -32 -71 -32 -60 3 12 43 -1 122 -20 122 -26 0 -55 -49 -65 -109 -6
-39 -9 -43 -20 -28 -25 35 -26 15 -1 -28 l27 -45 -21 -40 c-11 -22 -22 -40
-25 -40 -2 0 -11 13 -19 28 -19 37 -94 88 -109 73 -6 -6 -11 -36 -12 -68 -2
-52 -26 -133 -39 -133 -3 0 -5 10 -4 23 1 37 -2 48 -12 42 -5 -3 -23 9 -40 26
l-30 32 -34 -36 c-32 -35 -35 -36 -85 -30 -47 5 -51 4 -51 -16 0 -12 -6 -21
-15 -21 -10 0 -15 -10 -15 -30 0 -19 -5 -30 -14 -30 -23 0 -29 20 -13 38 8 9
17 34 19 55 3 32 -1 44 -28 75 l-31 36 -36 -27 c-49 -37 -60 -61 -62 -129 -1
-42 2 -58 12 -58 7 0 13 -4 13 -9 0 -5 -9 -7 -21 -4 -17 5 -20 11 -15 33 4 20
-1 33 -18 49 l-23 22 -37 -42 c-37 -44 -54 -96 -40 -126 4 -10 8 -22 9 -28 0
-5 4 -16 9 -24 6 -9 5 -12 -5 -9 -8 3 -13 14 -12 26 3 29 -21 44 -75 47 -26 1
-70 6 -99 10 -29 4 -60 4 -70 1 -14 -6 -9 -11 26 -27 24 -10 51 -19 60 -19 9
0 22 -5 28 -11 6 -6 32 -12 57 -13 36 0 47 -5 55 -23 9 -19 5 -24 -25 -42 -28
-17 -33 -25 -28 -45 3 -13 1 -27 -5 -31 -6 -3 -9 -10 -6 -15 3 -5 -3 -14 -15
-20 -17 -9 -22 -6 -37 27 -12 25 -25 38 -38 38 -11 1 -31 8 -45 17 -14 9 -47
19 -74 23 l-48 7 7 -41 c6 -39 5 -41 -18 -41 -17 0 -28 -7 -32 -21 -7 -20 -8
-20 -25 8 -10 17 -36 37 -59 46 -51 21 -67 21 -75 2 -6 -18 -32 -11 -63 18
-26 23 -16 47 21 47 32 0 66 11 66 21 0 5 -13 9 -30 9 -28 0 -29 1 -19 27 7
20 6 29 -3 35 -19 13 -74 2 -107 -21 -37 -27 -78 -27 -99 -1 -15 18 -32 22
-128 26 -68 4 -114 2 -118 -4 -7 -11 63 -62 86 -62 31 0 38 -23 26 -88 -9 -50
-9 -64 2 -77 13 -16 16 -15 32 5 9 11 20 48 24 81 4 39 11 59 20 59 10 0 12
-9 7 -30 -3 -19 1 -48 12 -76 21 -55 14 -66 -54 -82 -57 -14 -66 -9 -88 44
-10 24 -24 44 -31 44 -7 0 -21 6 -33 13 -18 10 -23 9 -45 -16 -13 -15 -24 -37
-24 -48 0 -10 -5 -19 -11 -19 -6 0 -8 7 -5 16 3 9 2 12 -5 9 -5 -4 -16 -1 -24
5 -11 10 -15 7 -21 -14 -5 -22 -12 -26 -40 -26 -24 0 -34 -5 -34 -15 0 -9 -10
-19 -23 -24 -30 -12 -79 -76 -75 -98 3 -19 35 -30 86 -32 24 -1 31 -5 25 -13
-4 -7 -8 -20 -8 -28 -1 -8 -2 -24 -3 -35 -1 -11 -16 -28 -33 -38 -24 -13 -30
-22 -26 -39 4 -12 2 -27 -4 -34 -6 -7 -9 -39 -7 -71 l3 -58 65 -3 c64 -2 109
-24 84 -40 -6 -4 -13 -15 -17 -24 -4 -12 -17 -18 -35 -18 -16 0 -51 -3 -77 -7
-43 -5 -48 -4 -42 11 14 36 -88 44 -138 12 -25 -16 -25 -16 -25 14 0 17 -7 42
-16 55 -12 18 -13 29 -6 38 9 10 3 13 -28 12 -47 -1 -51 -5 -55 -47 -2 -18 -4
-35 -4 -38 -2 -13 -67 -8 -83 7 -24 22 -33 10 -15 -19 10 -15 14 -43 12 -82
-5 -95 24 -129 66 -78 9 12 23 22 29 22 7 0 10 8 7 20 -4 16 0 20 18 20 13 0
27 -5 31 -11 5 -8 10 -6 16 5 6 10 22 16 41 16 18 0 89 3 160 6 125 7 127 6
127 -15 0 -26 1 -26 52 -1 23 11 43 20 45 20 2 0 3 -18 3 -39 0 -42 12 -53 46
-40 18 6 24 1 42 -37 12 -24 20 -44 18 -44 -2 0 -23 11 -47 24 -40 22 -50 23
-112 15 -97 -12 -108 -21 -62 -49 20 -12 57 -25 81 -28 40 -4 44 -7 44 -31 -1
-18 -10 -32 -33 -46 -18 -11 -42 -41 -56 -67 -14 -30 -30 -48 -40 -48 -23 0
-64 -45 -66 -71 -2 -19 -20 -38 -36 -39 -4 0 -14 11 -23 25 -19 29 -29 31 -51
9 -15 -15 -17 -15 -30 4 -35 49 -115 43 -150 -12 -18 -27 -14 -76 5 -76 6 0
10 -6 10 -14 0 -8 6 -16 13 -19 19 -7 6 -14 -40 -21 -36 -5 -43 -3 -48 14 -7
21 -39 27 -51 9 -4 -6 -7 -32 -9 -56 -1 -35 -7 -49 -25 -63 -23 -18 -25 -18
-38 1 -11 16 -10 23 4 46 14 26 14 25 -10 -3 -26 -31 -28 -31 -69 -19 -38 11
-43 16 -48 50 -6 34 -3 41 33 73 l39 35 -22 23 -21 22 46 0 c25 -1 52 4 60 11
11 9 15 9 18 0 3 -8 16 -5 43 9 22 11 59 25 83 32 46 14 50 21 27 40 -26 22
-85 14 -115 -15 l-27 -26 -7 25 c-7 27 -17 30 -84 28 -26 -1 -32 3 -32 19 0
12 -8 23 -20 26 -24 6 -25 13 -5 39 8 10 15 22 15 25 0 10 -52 1 -63 -10 -19
-19 -30 -12 -25 14 3 14 0 25 -6 26 -33 2 -48 10 -76 43 -34 38 -57 46 -66 21
-8 -20 -22 -19 -26 2 -4 19 -54 24 -106 10 -20 -5 -38 -5 -45 1 -7 5 -23 12
-37 14 -14 3 -34 9 -44 13 -16 7 -18 5 -13 -8 9 -24 -20 -35 -78 -31 -40 3
-55 -1 -78 -19 -16 -12 -28 -33 -29 -47 -2 -56 3 -90 13 -90 6 0 19 -10 29
-22 12 -16 29 -23 52 -23 27 0 34 -4 36 -22 4 -28 -1 -28 -36 -3 -15 11 -46
22 -69 26 -39 6 -43 5 -53 -20 -5 -14 -16 -26 -24 -26 -15 0 -76 -79 -76 -98
0 -11 53 -32 80 -32 9 0 24 -8 33 -18 20 -21 22 -32 6 -32 -20 0 -109 -43
-109 -52 0 -6 9 -12 19 -15 18 -5 18 -8 7 -41 -8 -23 -10 -46 -5 -59 10 -26 1
-29 -26 -9 -16 12 -17 17 -6 45 11 25 11 34 1 46 -16 20 -70 19 -98 -1 -20
-14 -23 -14 -28 1 -6 16 -4 33 16 144 8 46 6 61 -10 99 -17 37 -24 43 -41 39
-12 -3 -31 0 -43 8 -11 8 -42 16 -68 19 -48 6 -48 6 -48 -24 0 -27 21 -84 55
-150 11 -21 10 -30 -6 -62 -18 -36 -18 -38 -1 -47 26 -14 25 -52 -3 -81 -41
-43 -45 -140 -7 -140 10 0 23 -9 29 -20 14 -21 88 -48 101 -36 4 4 7 30 7 57
0 44 2 48 20 43 11 -3 28 -8 38 -10 10 -4 20 1 24 13 3 10 15 26 25 36 18 18
22 16 121 -35 98 -51 102 -55 99 -83 -4 -32 -28 -65 -47 -65 -7 0 -20 9 -31
21 -39 43 -125 7 -143 -59 -12 -41 10 -95 40 -98 41 -5 85 6 109 26 22 19 23
19 42 -5 15 -20 25 -23 51 -18 40 7 89 32 84 41 -8 13 13 53 24 47 8 -5 8 -10
0 -18 -11 -11 -15 -47 -6 -47 3 0 23 9 43 19 21 11 54 22 75 26 32 6 40 3 68
-24 23 -23 29 -36 23 -49 -5 -9 -9 -45 -9 -79 l1 -63 -32 0 c-22 0 -34 -6 -38
-17 -3 -10 -18 -23 -32 -30 -25 -11 -25 -11 -22 20 3 31 0 34 -68 67 -39 19
-75 44 -80 55 -6 13 -17 19 -34 18 -27 -3 -40 -3 -113 -2 -31 0 -58 -6 -78
-19 l-31 -19 37 -42 c21 -23 48 -44 61 -47 12 -3 25 -13 28 -21 14 -36 128 14
140 61 l6 25 60 -26 c57 -25 60 -28 60 -62 0 -20 -9 -51 -21 -70 -11 -18 -19
-34 -17 -36 15 -12 51 -25 72 -25 14 0 26 -4 26 -8 0 -5 19 -17 43 -27 23 -9
50 -21 59 -26 9 -5 32 -6 49 -2 28 5 31 4 26 -12 -5 -11 -1 -22 9 -30 21 -15
12 -30 -29 -51 -38 -19 -66 -52 -67 -76 0 -13 -8 -18 -25 -18 -14 0 -37 -7
-51 -16 -28 -19 -29 -19 -38 18 -6 26 -5 27 41 30 l48 3 -44 22 c-33 16 -50
19 -63 12 -10 -5 -33 -7 -52 -4 -27 6 -38 2 -55 -16 -23 -25 -26 -41 -11 -69
8 -16 5 -19 -19 -25 -50 -11 -55 -27 -21 -67 17 -20 44 -41 60 -48 16 -6 31
-18 34 -26 3 -8 14 -14 24 -14 10 0 27 -9 37 -20 10 -11 26 -20 35 -20 10 0
24 -10 32 -22 14 -21 18 -21 56 -10 50 15 82 47 82 80 0 21 4 23 38 20 25 -2
44 -11 60 -29 27 -33 28 -39 1 -39 -23 0 -79 -30 -79 -43 0 -13 80 -87 94 -87
8 0 20 -10 28 -21 13 -20 16 -21 52 -8 21 8 49 24 63 37 l24 22 26 -20 c14
-11 32 -20 40 -20 7 0 16 -6 19 -14 4 -12 12 -13 31 -5 l26 10 -17 -26 c-10
-15 -16 -31 -14 -37 2 -6 16 8 31 31 25 37 29 40 51 29 30 -13 36 -26 29 -62
-4 -19 -16 -33 -39 -43 -18 -9 -31 -20 -28 -24 2 -5 -8 -15 -23 -23 -36 -20
-22 -20 24 -1 20 8 37 14 38 13 1 -2 6 -19 12 -38 5 -19 15 -34 22 -32 6 1 22
-7 34 -18 16 -15 31 -20 55 -17 36 5 72 -1 72 -13 0 -4 -27 -13 -60 -20 -33
-7 -63 -17 -66 -21 -3 -5 1 -7 8 -4 29 10 98 14 93 4 -4 -5 -12 -9 -19 -9 -7
0 -23 -11 -35 -24 l-23 -24 21 -21 c27 -27 75 -27 126 -1 45 23 55 20 26 -9
-12 -12 -34 -21 -52 -21 -36 0 -89 -34 -89 -57 0 -10 5 -13 18 -8 9 4 43 16
75 27 l58 20 24 -22 c13 -12 28 -35 34 -50 9 -27 8 -28 -31 -33 -62 -8 -68
-21 -28 -62 19 -20 45 -38 58 -42 12 -3 29 -14 37 -25 9 -14 21 -19 38 -16 19
4 23 1 20 -12 -3 -11 12 -32 43 -59 33 -29 44 -45 37 -52 -18 -18 -58 -6 -61
18 -2 16 -12 23 -41 28 -20 3 -48 2 -62 -4 -28 -10 -59 -51 -59 -76 0 -14 -5
-13 -31 6 -57 40 -169 19 -169 -31 0 -26 48 -50 100 -50 29 0 40 -4 40 -15 0
-19 5 -19 35 1 21 14 28 14 66 1 l43 -15 -44 -7 c-25 -4 -59 -19 -77 -32 -27
-21 -45 -25 -118 -28 -77 -2 -85 -1 -79 14 15 32 10 93 -9 105 -14 9 -20 8
-27 -4 -19 -28 -23 -64 -12 -94 8 -19 8 -34 2 -40 -12 -12 -102 13 -113 31 -4
7 -16 13 -26 13 -26 0 -49 29 -32 39 9 6 7 10 -8 14 -14 3 -21 13 -21 28 l0
22 -22 -20 c-18 -15 -34 -19 -68 -16 -37 3 -42 1 -30 -9 24 -21 22 -44 -8 -76
-18 -19 -43 -33 -68 -38 -38 -6 -94 -33 -94 -44 0 -9 72 -76 95 -88 20 -11 20
-11 -1 -12 -12 0 -32 -8 -45 -19 -20 -16 -21 -21 -10 -34 7 -10 10 -25 6 -38
-6 -19 -4 -21 14 -16 15 3 21 0 21 -10 0 -12 7 -14 30 -10 23 5 32 2 40 -13 6
-11 18 -20 28 -20 28 0 112 -44 112 -59 0 -19 48 -101 60 -101 16 0 60 61 70
99 8 32 16 40 49 49 21 7 49 12 63 12 13 0 29 5 36 12 6 6 15 8 19 4 4 -4 1
-11 -6 -15 -18 -12 -7 -71 20 -106 12 -14 20 -27 18 -29 -2 -1 -16 -7 -30 -13
-15 -6 -33 -25 -40 -42 -8 -17 -17 -31 -20 -31 -4 0 -6 -11 -6 -24 0 -15 6
-26 18 -29 11 -3 19 -14 19 -25 0 -12 5 -24 10 -27 7 -4 8 -24 3 -53 -9 -56
-9 -140 1 -149 4 -4 34 -8 66 -9 41 -1 66 -7 79 -18 18 -16 20 -15 45 14 14
17 26 35 26 40 0 16 31 40 51 40 11 0 19 -7 19 -16 0 -12 4 -14 13 -7 26 21
171 73 202 73 32 0 65 -25 65 -49 0 -7 4 -9 10 -6 5 3 15 -5 22 -19 13 -30 62
-46 121 -41 53 5 77 29 77 77 0 21 5 38 10 38 6 0 10 6 10 13 0 7 13 25 28 40
23 22 34 26 60 21 17 -3 33 -12 36 -20 8 -21 46 -17 93 10 39 23 41 23 46 5 7
-26 27 -24 61 7 29 28 58 83 50 96 -3 4 6 20 20 35 15 15 26 33 26 39 0 17
-42 52 -72 59 -30 8 -87 -21 -112 -56 -11 -16 -19 -18 -52 -11 l-39 9 27 13
c19 9 30 23 34 46 7 39 39 50 94 34 66 -19 109 -7 95 26 -4 11 -9 32 -10 47
-4 43 28 31 36 -13 l6 -35 2 36 c1 45 17 53 87 50 33 -2 63 3 84 14 35 18 55
11 27 -10 -15 -11 -16 -13 -2 -19 8 -3 22 -3 30 1 9 3 21 -2 28 -11 10 -14 17
-15 45 -5 25 8 38 23 56 63 14 28 27 58 29 67 4 12 36 22 119 38 62 12 120 21
129 21 9 0 36 -16 62 -36 l46 -36 -6 -51 c-3 -29 -10 -60 -15 -70 -9 -17 -4
-27 37 -68 l20 -20 22 25 c12 15 25 42 29 61 3 19 9 35 13 35 3 0 38 -25 76
-56 39 -31 106 -84 150 -117 147 -112 273 -236 338 -332 33 -49 81 -115 107
-145 26 -30 106 -143 177 -251 l130 -196 7 -74 c3 -41 11 -146 16 -234 29
-474 94 -853 202 -1178 94 -286 115 -334 208 -472 48 -71 94 -143 103 -160 45
-84 62 -453 32 -675 -9 -63 -20 -155 -26 -205 -9 -80 -64 -370 -89 -465 -38
-148 -53 -226 -70 -370 -11 -91 -20 -199 -20 -240 0 -41 -5 -144 -12 -227 -13
-175 -1 -401 32 -588 11 -60 23 -184 27 -275 l8 -165 385 0 385 0 -3 175 c-6
313 -20 624 -32 680 -7 30 -18 83 -26 118 -50 217 -62 401 -44 672 5 80 12
260 15 400 3 140 13 300 21 355 29 199 33 242 33 360 0 66 -6 156 -14 200 -8
44 -15 83 -15 87 0 15 170 208 240 272 87 79 148 143 269 281 159 183 191 231
255 382 14 34 51 103 81 153 64 105 106 188 136 262 17 45 133 240 163 275 20
23 280 258 341 308 42 34 61 44 63 34 2 -12 17 -8 70 18 37 17 73 32 80 33 24
0 11 20 -20 28 l-33 9 28 12 c38 15 47 14 47 -4 0 -8 2 -15 5 -15 11 0 62 25
78 39 13 11 20 12 29 3 9 -9 7 -16 -10 -28 -25 -17 -32 -70 -8 -61 11 4 13 1
9 -11 -10 -26 -21 -30 -66 -25 -59 6 -132 -40 -97 -62 5 -3 7 -18 4 -33 -5
-25 -3 -27 31 -28 27 0 42 -7 55 -24 9 -12 23 -21 31 -18 8 3 19 -2 25 -10 14
-19 34 -7 34 19 0 22 28 26 36 4 4 -8 16 -15 28 -15 34 1 104 36 110 57 3 11
20 30 37 42 28 21 32 21 48 7 10 -9 25 -16 34 -16 9 0 17 -7 17 -15 0 -33 109
-5 129 33 15 28 14 74 -3 97 -10 14 -21 17 -50 12 -56 -9 -64 -2 -61 50 4 58
16 71 50 53 19 -10 31 -11 43 -4 9 6 33 9 53 6 37 -4 79 11 79 28 0 14 -52 39
-98 46 -55 9 -66 35 -14 32 20 -1 55 1 77 5 38 7 42 5 95 -45 30 -29 56 -62
57 -73 7 -55 11 -73 18 -85 5 -9 2 -10 -13 -6 -24 8 -42 -17 -42 -59 0 -38 25
-41 60 -7 27 28 33 29 60 19 17 -6 33 -20 36 -30 5 -16 13 -18 39 -14 30 5 38
0 84 -48 28 -30 51 -60 51 -67 0 -7 10 -18 23 -23 23 -11 24 -17 12 -77 -6
-30 -4 -38 8 -38 8 0 20 -7 28 -16 8 -10 24 -14 46 -12 27 3 33 0 33 -14 0
-13 -8 -18 -31 -18 -38 0 -99 -28 -99 -45 0 -17 76 -85 95 -85 9 0 18 -7 22
-16 5 -12 15 -15 47 -10 45 7 81 -6 51 -18 -12 -4 -16 -14 -12 -32 5 -30 -21
-58 -121 -130 -60 -42 -63 -47 -48 -63 9 -10 16 -20 16 -24 0 -3 -36 -29 -80
-58 -44 -28 -80 -53 -80 -55 0 -12 26 1 95 47 67 45 79 50 91 37 20 -19 8 -45
-27 -64 -32 -16 -36 -26 -16 -41 25 -21 71 -21 109 -2 48 25 128 101 128 122
0 23 16 29 40 15 15 -10 19 -19 15 -38 -6 -23 -5 -24 12 -8 15 14 20 14 31 2
11 -12 9 -14 -10 -14 -29 0 -74 -37 -83 -68 -6 -22 -5 -23 14 -13 27 15 29 -5
4 -25 -13 -9 -37 -11 -86 -7 -75 7 -97 -4 -116 -58 -12 -35 -8 -35 60 -5 30
13 67 27 83 30 27 7 28 5 24 -19 -4 -19 -2 -25 8 -21 25 10 15 -10 -11 -22
-25 -11 -34 -32 -15 -32 6 0 10 -9 10 -19 0 -18 62 -81 80 -81 5 0 20 -11 34
-24 26 -23 26 -23 6 -41 -20 -19 -20 -19 22 -62 23 -24 47 -43 54 -43 6 0 19
-11 28 -25 21 -32 3 -42 -39 -21 -18 9 -34 12 -44 6 -9 -4 -44 -8 -78 -7 -45
0 -69 -5 -93 -20 l-31 -20 25 -30 c14 -17 40 -36 58 -44 18 -7 37 -19 41 -27
6 -9 18 -11 38 -7 21 5 31 2 35 -8 9 -24 67 -30 112 -12 45 18 63 46 65 100 2
40 27 64 27 26 0 -32 49 -123 63 -118 18 6 11 70 -12 108 -21 34 -20 49 4 49
8 0 12 -6 9 -14 -16 -43 117 -47 161 -6 14 13 25 27 25 32 0 9 -48 23 -70 20
-8 -1 8 9 35 22 56 26 68 38 82 80 17 54 40 41 49 -30 3 -22 -2 -36 -16 -49
-11 -10 -20 -29 -20 -41 l0 -24 50 20 c62 24 60 24 60 0 0 -11 5 -20 10 -20 6
0 10 11 10 25 0 15 6 25 14 25 20 0 42 -30 38 -53 -3 -15 0 -18 12 -13 9 3 23
9 31 12 10 4 15 0 15 -10 0 -9 -4 -16 -9 -16 -22 0 -21 -36 1 -53 l22 -19 -24
-18 c-20 -16 -23 -22 -14 -37 6 -10 21 -19 33 -21 11 -2 21 -8 21 -13 0 -15
57 18 94 56 l35 34 16 -50 c10 -28 19 -49 21 -47 2 2 -4 28 -14 57 l-17 53 26
22 c31 25 49 57 49 85 0 24 8 26 47 9 59 -24 146 -9 160 29 7 19 -30 53 -58
53 -16 0 -15 3 6 25 14 13 25 28 25 32 0 12 -55 43 -77 43 -11 0 -14 3 -6 8 7
4 10 36 9 90 -2 67 0 82 12 77 7 -3 17 -5 22 -5 5 0 18 -16 30 -36 12 -19 33
-42 47 -51 23 -16 26 -15 35 0 5 9 19 17 31 17 13 0 32 7 44 15 18 13 22 12
38 -5 20 -22 80 -44 94 -36 5 4 12 19 16 36 5 22 15 32 42 41 39 13 34 23 -16
36 -45 11 -49 27 -14 45 31 16 74 8 104 -19 15 -12 22 -12 53 1 41 17 46 38
20 92 -13 27 -22 34 -45 34 -35 0 -46 16 -26 38 19 21 43 100 33 109 -4 4 -20
2 -36 -4 -28 -11 -30 -10 -36 22 -4 22 -13 35 -26 38 -14 4 -19 12 -16 25 3
11 2 26 -3 35 -6 10 -4 17 6 21 9 3 31 -11 58 -37 42 -42 42 -42 115 -41 62 1
75 4 92 24 18 21 19 25 5 40 -18 20 -98 45 -118 37 -16 -6 -37 11 -37 30 0 7
11 15 25 19 28 7 33 22 10 30 -13 5 -11 11 10 30 40 37 95 30 95 -11 0 -13 11
-32 25 -43 14 -11 25 -25 25 -31 0 -6 17 -11 40 -11 22 0 40 5 40 10 0 17 26
11 46 -11 10 -12 34 -28 52 -36 17 -7 32 -17 32 -22 0 -5 18 -12 40 -16 26 -4
41 -13 45 -26 7 -21 26 -24 56 -9 17 9 19 7 19 -16 0 -20 4 -25 16 -20 9 4 22
2 29 -4 17 -14 54 1 82 34 13 14 28 26 34 26 6 0 9 7 5 15 -8 22 18 18 40 -6
10 -12 34 -28 51 -35 20 -9 35 -24 39 -39 5 -20 9 -23 20 -15 19 17 54 -4 47
-28 -3 -14 2 -21 17 -25 17 -4 21 -10 15 -24 -4 -10 -8 -24 -9 -32 -2 -8 -15
-24 -30 -36 l-27 -21 26 -30 c14 -16 25 -32 25 -36 0 -4 16 -10 35 -14 21 -4
37 -13 40 -25 8 -24 29 -24 82 0 39 18 42 18 57 2 15 -16 14 -19 -9 -29 -14
-7 -40 -12 -58 -12 -28 0 -97 -32 -97 -45 0 -12 73 -75 94 -81 14 -3 27 -13
30 -21 5 -12 15 -14 41 -10 21 4 33 2 30 -4 -13 -19 77 -105 96 -93 5 2 13 -5
19 -16 6 -11 20 -20 31 -20 36 0 97 38 106 66 l9 27 23 -31 c12 -18 20 -36 16
-41 -3 -6 10 -21 29 -34 34 -23 35 -24 21 -51 -19 -36 -19 -36 9 -36 30 0 76
40 76 65 0 16 7 17 77 11 l76 -7 -15 23 c-19 29 -55 48 -90 48 -16 0 -28 3
-28 8 0 8 45 54 80 81 22 17 23 22 13 40 -11 18 -9 22 18 35 27 14 35 14 66 1
63 -26 119 -11 136 37 19 54 -40 123 -94 112 -19 -4 -18 -2 7 11 17 9 37 27
44 41 9 15 22 24 37 24 14 0 21 4 18 10 -3 6 -15 10 -26 10 -10 0 -19 5 -19
10 0 6 17 10 38 10 34 1 35 2 19 14 -17 13 -15 16 25 34 57 25 74 61 58 121
-8 30 -16 41 -30 41 -10 0 -25 7 -34 15 -8 8 -19 15 -25 15 -6 0 -11 9 -11 19
0 12 15 27 40 40 57 30 63 28 55 -19 -6 -34 -3 -43 19 -65 52 -52 139 -17 147
60 3 30 -12 95 -22 95 -5 0 -18 9 -29 20 -16 16 -33 20 -90 20 l-70 0 0 55 c0
53 -1 55 -26 55 -14 0 -34 10 -43 22 l-18 22 -27 -27 c-14 -14 -26 -37 -26
-50 0 -21 -16 -37 -36 -37 -12 0 0 24 41 79 25 34 45 63 45 66 0 11 -52 4 -75
-11 -24 -16 -49 -69 -39 -85 3 -5 0 -9 -5 -9 -6 0 -11 9 -11 19 0 14 -10 22
-32 26 -36 8 -58 -12 -58 -51 0 -28 -20 -74 -32 -74 -4 0 -8 -6 -8 -14 0 -21
-9 -22 -153 -13 -149 9 -171 13 -144 28 9 6 17 17 17 24 0 19 14 19 29 1 16
-19 60 -26 87 -14 13 6 27 24 33 39 7 20 17 29 31 29 29 0 77 26 90 49 23 43
3 95 -47 120 -35 18 -51 13 -89 -26 -20 -20 -47 -38 -61 -39 -14 -2 -34 -11
-44 -20 -30 -27 -32 -10 -4 31 14 21 25 44 25 51 0 20 -40 17 -78 -6 -36 -22
-62 -26 -62 -9 0 6 6 9 14 6 8 -3 20 1 26 9 7 8 20 14 30 14 10 0 24 7 31 16
11 14 10 20 -13 39 l-27 23 29 10 c15 6 33 19 39 30 9 17 6 22 -27 38 -20 9
-58 19 -84 22 -41 4 -48 8 -57 33 -6 18 -17 29 -30 30 -12 1 -25 3 -31 4 -5 1
-17 3 -25 4 -22 2 -18 16 8 29 12 6 16 11 10 11 -7 1 -13 12 -13 25 0 26 -51
76 -77 76 -8 0 -27 12 -42 28 -15 15 -35 32 -46 38 -24 14 -13 29 28 40 23 5
29 3 34 -15 3 -11 10 -21 15 -21 5 0 6 5 3 10 -10 17 41 11 56 -6 11 -14 14
-13 26 10 7 13 22 27 33 31 15 5 19 12 14 31 -4 14 -2 24 5 24 6 0 8 6 5 14
-3 8 3 16 15 19 19 4 20 10 15 54 -3 26 -10 64 -15 84 -5 20 -6 44 -3 53 3 9
2 22 -3 29 -13 17 -15 99 -2 91 6 -3 8 -12 5 -20 -3 -8 -2 -13 3 -11 4 1 20
-13 35 -31 39 -46 50 -30 20 30 -26 52 -26 78 1 78 22 0 65 49 65 74 0 12 4
27 9 35 8 12 13 12 34 -2 23 -15 25 -15 30 2 2 10 1 24 -3 31 -5 8 3 22 21 38
39 32 30 40 -15 13 l-35 -22 -35 36 c-36 35 -36 36 -20 66 18 35 15 84 -5 84
-7 0 -21 -14 -30 -31 -17 -30 -17 -30 -33 -10 -16 21 -16 21 -29 -9 -15 -38
-14 -102 2 -122 11 -12 7 -19 -19 -40 -18 -13 -32 -33 -32 -43 0 -27 -37 -21
-45 7 -7 31 -44 63 -72 63 -30 0 -61 -64 -45 -90 6 -10 7 -34 2 -59 -10 -54 1
-95 26 -99 10 -2 31 -15 46 -29 l27 -25 -25 -40 c-14 -21 -34 -48 -44 -58 -20
-20 -24 -31 -20 -64 1 -11 -3 -15 -9 -12 -6 4 -11 15 -11 26 0 10 -13 32 -29
49 -38 40 -73 41 -112 1 -29 -29 -32 -29 -106 -24 l-76 5 5 -45 c4 -29 2 -43
-4 -40 -11 7 -58 -42 -58 -59 0 -6 -17 -35 -37 -65 l-38 -54 -45 7 c-25 4 -67
8 -95 10 -27 2 -72 6 -98 10 -53 9 -47 12 -139 -78 -57 -55 -58 -56 -87 -41
-16 8 -47 16 -67 18 -34 3 -50 15 -73 54 -20 35 -61 -23 -61 -87 0 -25 -5 -41
-14 -44 -13 -5 -100 23 -136 44 -33 20 -42 21 -63 11 -12 -6 -46 -14 -74 -17
-57 -7 -70 6 -35 36 9 9 23 25 30 35 12 18 13 18 7 0 -7 -23 11 -46 37 -46 20
0 57 32 75 64 10 18 11 18 34 -2 25 -24 49 -29 49 -10 0 17 -101 168 -112 168
-5 0 -8 -10 -6 -22 2 -15 -6 -31 -24 -46 -15 -13 -30 -32 -33 -42 -10 -30 -25
-24 -25 10 0 23 -5 30 -19 30 -26 0 -52 11 -47 19 3 4 2 12 -2 17 -13 20 -70
-6 -119 -52 -45 -42 -47 -46 -29 -59 25 -19 11 -36 -23 -29 -16 3 -31 1 -35
-4 -4 -7 8 -14 29 -18 41 -7 45 -21 9 -34 -38 -15 -58 -12 -85 11 -35 31 -99
61 -115 55 -19 -7 -18 -40 5 -86 21 -44 13 -60 -31 -60 l-28 0 5 58 5 57 -22
-48 c-16 -33 -30 -49 -48 -53 -14 -3 -39 -12 -57 -21 -24 -11 -42 -13 -70 -7
l-38 9 48 3 c54 4 55 22 1 22 -19 0 -34 5 -34 10 0 14 -33 13 -47 -1 -9 -9
-20 -9 -43 1 l-31 13 33 27 c25 21 32 35 32 61 0 53 -10 69 -42 69 -27 0 -30
3 -35 45 -2 26 -7 49 -11 52 -14 14 -95 7 -113 -9 -25 -23 -37 -23 -25 -1 7
12 2 24 -23 49 l-33 33 24 15 c13 9 21 22 18 30 -3 8 -1 17 5 21 6 3 11 0 11
-8 0 -17 80 -67 107 -67 10 0 47 -26 83 -57 44 -38 54 -44 30 -19 -19 21 -28
36 -20 34 8 -3 26 -1 39 4 19 7 28 3 47 -17 17 -19 33 -25 62 -25 26 0 42 -5
46 -15 7 -20 69 -19 113 1 40 20 66 54 57 78 -7 20 -36 20 -89 1 -50 -18 -48
-19 -40 6 4 12 4 41 0 65 l-6 44 -49 0 c-27 0 -52 -4 -55 -10 -9 -15 -25 -12
-25 4 0 19 -34 26 -71 16 -27 -8 -31 -6 -39 16 -6 14 -10 30 -10 35 0 5 -15
10 -32 11 -18 0 -38 2 -45 2 -19 2 -52 51 -50 74 1 18 8 22 38 22 21 0 49 4
63 10 49 18 23 70 -35 70 -17 0 -20 4 -15 23 3 12 6 29 6 38 0 10 15 20 41 28
23 7 38 15 35 18 -3 3 -20 0 -37 -6 -25 -9 -34 -8 -41 1 -13 22 -9 40 12 45
10 3 29 25 41 49 l21 45 -26 26 c-27 27 -33 43 -16 43 6 0 10 -4 10 -10 0 -17
40 -32 70 -25 16 3 40 17 54 30 16 15 33 21 45 18 12 -3 36 5 57 17 25 16 38
20 43 11 17 -27 131 41 131 78 0 9 10 0 23 -18 l23 -34 -23 -23 c-13 -13 -23
-32 -23 -44 0 -24 2 -24 42 -4 17 9 53 22 80 31 48 14 49 15 32 34 -9 10 -12
19 -6 19 6 0 20 10 32 22 17 19 20 19 20 4 0 -9 13 -25 30 -34 16 -9 30 -20
30 -24 0 -5 9 -8 19 -8 11 0 21 -4 23 -9 2 -5 21 -11 43 -13 39 -3 40 -2 46
34 3 21 0 53 -7 75 -18 50 -18 49 15 62 26 11 42 33 54 71 3 10 8 6 16 -12 6
-16 15 -28 20 -28 6 0 4 -18 -4 -41 -25 -70 -20 -84 27 -80 9 1 33 -14 53 -33
41 -40 47 -42 65 -21 7 8 21 15 31 15 11 0 36 15 57 34 l37 34 -24 26 c-13 14
-33 28 -43 32 -19 6 -19 6 1 21 13 9 21 25 21 44 0 22 6 32 26 39 28 11 69 91
60 117 -9 22 74 94 94 83 9 -5 59 -9 113 -9 78 -1 97 2 97 13 0 18 -24 43 -50
51 -12 4 -20 15 -20 28 0 43 -12 67 -34 68 -11 1 0 6 26 11 40 9 48 14 53 38
6 28 8 29 54 23 55 -6 116 10 125 34 7 18 -10 43 -30 43 -8 0 -14 4 -14 9 0 5
23 11 52 13 38 4 57 11 70 28 19 23 18 23 -9 41 -53 35 -134 36 -168 3 -13
-14 -15 -14 -15 0 0 23 -46 54 -92 61 -23 4 -57 16 -76 27 -41 23 -90 27 -102
8 -10 -16 -2 -46 16 -61 21 -17 17 -24 -26 -43 -22 -10 -40 -23 -40 -31 0 -7
-7 -15 -15 -19 -10 -4 -20 5 -29 29 -11 25 -21 35 -36 35 -21 0 -21 1 4 31 14
17 26 34 26 39 0 10 -28 40 -38 40 -18 1 -32 18 -27 32 7 17 31 14 75 -9 14
-7 32 -13 41 -13 8 0 20 -5 27 -12 8 -8 14 -5 21 15 6 15 15 27 21 27 6 0 9
13 8 28 -3 39 7 49 50 57 66 11 73 25 12 25 -54 0 -55 1 -66 35 -10 33 -9 36
20 60 43 36 12 19 -52 -27 -55 -41 -72 -37 -54 13 13 34 3 109 -15 116 -8 3
-30 -1 -49 -10 l-34 -17 0 40 c0 27 -7 48 -24 67 -24 27 -25 27 -44 9 -38 -34
-55 -83 -47 -140 5 -45 4 -53 -10 -53 -9 0 -20 10 -25 21 -4 12 -16 29 -27 38
-25 23 -91 50 -104 43 -20 -13 -21 28 -1 63 11 21 22 55 24 77 3 39 2 40 -30
43 -20 2 -46 -5 -67 -17 -19 -11 -37 -16 -40 -11 -3 5 -19 11 -35 15 -21 5
-35 17 -46 40 -20 43 -37 57 -58 49 -21 -8 -28 -39 -29 -128 l-2 -73 -43 5
c-33 4 -43 2 -41 -9 1 -8 -3 -27 -9 -42 -7 -16 -12 -33 -12 -38 0 -5 -10 -9
-22 -9 -12 0 -32 -10 -45 -22 -20 -19 -27 -20 -43 -10 -17 10 -20 10 -20 -3 0
-9 7 -18 15 -21 8 -4 15 -15 15 -25 0 -16 4 -18 18 -11 23 12 42 4 42 -17 0
-18 -71 -92 -105 -109 -17 -9 -30 -4 -73 29 -43 33 -53 37 -58 24 -6 -15 21
-55 37 -55 4 0 20 -5 35 -10 25 -10 26 -12 10 -29 -9 -9 -16 -22 -16 -28 0 -6
-6 -16 -14 -22 -12 -10 -15 -5 -21 29 -9 51 -34 53 -88 9 -20 -17 -37 -26 -37
-20 0 5 5 13 10 16 6 3 10 25 10 49 0 32 -6 48 -25 66 l-25 23 -25 -23 c-34
-31 -48 -80 -41 -142 5 -52 5 -54 -34 -87 -37 -31 -40 -32 -40 -12 0 12 6 21
15 21 22 0 37 35 26 63 -5 13 -28 39 -50 56 -31 25 -41 40 -41 62 0 30 9 36
26 19 21 -21 39 8 39 65 0 43 4 56 17 61 9 3 23 18 30 34 l13 29 20 -24 c23
-28 91 -59 100 -46 14 23 -92 111 -115 96 -6 -4 -13 1 -16 9 -9 23 24 69 43
62 34 -13 64 -18 62 -10 -4 26 4 34 36 34 24 0 45 9 70 31 l35 31 -27 52 c-15
28 -32 54 -37 57 -4 4 -2 23 5 43 10 29 17 35 33 30 16 -5 18 -3 10 12 -4 11
-7 52 -6 92 2 54 -1 80 -12 97 -9 14 -16 40 -16 59 0 38 -25 61 -54 50 -13 -5
-15 -1 -10 25 4 21 1 39 -10 56 -14 22 -22 24 -54 19 -33 -5 -42 -2 -70 25
-43 40 -69 47 -92 26 -11 -10 -26 -14 -39 -10 -16 5 -19 12 -15 38 7 50 -8 91
-36 95 -13 2 -29 10 -35 18 -11 14 -87 44 -113 44 -12 0 -14 -11 -9 -58 5 -57
4 -60 -24 -76 -22 -13 -36 -15 -62 -8 -18 5 -46 7 -63 5 -30 -5 -31 -4 -32 40
-1 25 2 49 8 52 20 12 11 80 -13 103 -40 38 -140 17 -153 -32 -3 -13 -17 -29
-31 -35 -23 -11 -25 -10 -20 9 3 13 0 23 -8 27 -11 4 -12 9 -2 24 6 10 17 19
23 19 10 0 30 22 92 100 2 3 9 -3 17 -13 11 -15 17 -16 39 -6 29 14 46 5 28
-13 -22 -22 -12 -32 11 -10 17 16 41 22 110 28 61 5 87 3 87 -4 0 -18 55 -42
95 -42 45 0 105 25 105 43 0 8 -8 22 -19 31 -10 9 -21 35 -24 56 -5 38 -25 70
-44 70 -24 0 -63 26 -58 39 7 17 -23 40 -52 41 -38 0 -35 19 6 36 54 21 59 40
13 55 -56 18 -120 14 -153 -10 l-29 -21 -55 45 c-31 25 -53 46 -50 46 3 1 8 2
13 3 4 1 22 8 41 15 31 13 33 17 28 53 -5 40 -37 78 -65 78 -8 0 3 17 27 41
43 43 48 54 31 64 -5 3 -10 21 -10 39 0 19 -7 53 -15 77 -12 32 -13 45 -4 48
22 7 51 43 42 52 -9 9 -53 17 -113 19 l-35 2 59 28 c66 32 100 58 53 41 -37
-14 -47 -14 -47 2 0 27 -120 61 -134 38 -9 -14 -41 -14 -82 1 -29 10 -31 13
-23 41 5 16 6 34 3 38 -3 5 2 12 11 15 10 4 12 10 6 18 -5 6 -9 41 -10 77 -1
58 2 69 24 89 25 23 26 23 54 7 36 -21 70 -22 98 -2 21 15 23 14 45 -27 l22
-43 6 35 c3 19 2 43 -2 53 -6 12 -5 17 7 17 8 0 15 4 15 9 0 5 8 11 18 13 11
3 2 9 -25 18 -40 12 -41 14 -27 35 18 28 51 25 96 -7 49 -35 124 -23 149 23
l12 23 19 -24 c16 -20 21 -21 29 -9 21 34 3 77 -46 109 l-24 16 35 1 c27 1 42
10 69 39 19 21 35 40 35 42 0 7 -26 28 -43 35 -14 5 -16 11 -7 26 5 11 15 23
20 26 19 12 10 25 -17 25 -29 -1 -73 -30 -73 -49 0 -25 -31 -9 -36 19 -7 31
-17 35 -86 30 -23 -1 -26 2 -21 22 l6 23 -25 -22 c-16 -15 -37 -23 -60 -23
-41 0 -68 -8 -68 -21 0 -4 16 -24 36 -43 32 -31 34 -35 18 -44 -16 -9 -14 -13
19 -32 38 -23 52 -39 18 -20 -11 5 -33 10 -50 10 -29 0 -35 -7 -32 -36 3 -25
-33 -25 -57 -1 -23 23 -23 26 -8 55 21 40 20 45 -4 32 -17 -9 -20 -8 -20 10 0
11 -5 20 -10 20 -14 0 -60 -46 -60 -59 0 -6 -6 -8 -14 -5 -7 3 -16 -2 -19 -10
-4 -9 -14 -16 -23 -16 -12 0 -15 7 -12 25 6 29 7 28 -26 15 -20 -7 -26 -6 -26
5 0 47 -61 95 -121 95 -17 0 -10 -12 40 -66 34 -37 61 -73 61 -80 0 -7 -10
-22 -22 -34 l-22 -20 24 -25 c21 -22 22 -28 10 -36 -43 -28 -47 -28 -60 -3 -8
13 -24 27 -36 30 -13 3 -25 16 -29 31 -8 33 -5 35 34 20 35 -13 52 -1 46 32
-2 9 -4 19 -4 23 -1 3 -13 20 -27 37 -14 17 -33 51 -43 74 -21 55 -55 99 -73
92 -10 -4 -13 4 -10 37 2 28 0 38 -6 30 -14 -21 -61 -5 -55 19 3 11 0 19 -6
19 -20 0 -51 -20 -51 -33 0 -22 -50 -67 -74 -67 -12 0 -26 -3 -29 -6 -3 -4
-22 -8 -41 -9 -42 -2 -64 -27 -113 -123 -21 -40 -33 -78 -33 -103 0 -32 -3
-39 -20 -39 -13 0 -24 10 -31 27 -16 44 -29 55 -46 41 -22 -18 -41 -72 -36
-100 3 -15 -2 -29 -11 -37 -10 -8 -16 -29 -16 -52 0 -22 -5 -39 -10 -39 -6 0
-14 -10 -19 -22 -7 -19 -14 -22 -50 -19 -37 2 -42 0 -53 -26 l-11 -28 -10 43
c-9 39 -12 42 -44 42 -30 0 -34 3 -28 18 25 58 24 59 -70 56 -82 -2 -89 -3
-119 -33 -27 -26 -37 -30 -64 -25 -38 8 -53 24 -23 24 12 0 21 4 21 9 0 6 16
7 36 4 34 -6 36 -5 34 23 -1 16 -1 45 0 64 l2 35 14 -32 c24 -56 28 -37 8 38
-3 10 3 18 14 21 12 4 23 22 32 52 7 26 20 51 29 56 14 9 12 13 -12 33 -24 20
-26 25 -13 36 8 7 35 11 63 9 39 -2 51 1 66 19 9 11 17 28 17 36 0 19 27 30
33 14 3 -9 10 -9 27 1 21 13 22 12 15 -5 -4 -10 -9 -28 -10 -40 -1 -11 -9 -33
-18 -47 -17 -25 -16 -26 14 -61 22 -25 39 -35 60 -35 43 0 88 57 59 75 -5 3
-9 16 -8 28 1 12 -2 31 -5 43 -7 19 -4 21 35 20 l43 -1 2 40 c1 22 9 60 17 84
20 54 20 51 -3 51 -29 0 -73 -57 -65 -84 4 -13 3 -17 -3 -11 -11 11 -29 86
-38 158 -5 39 -10 47 -28 49 -51 4 -79 -2 -107 -22 -36 -26 -37 -24 -5 31 31
54 31 55 -1 72 l-26 13 42 13 42 12 -26 28 c-20 20 -26 37 -26 70 0 27 4 40
11 36 6 -4 8 -13 5 -20 -9 -23 16 -71 43 -83 51 -21 90 -19 121 8 13 11 27 20
32 20 25 0 -19 92 -53 111 -19 9 -18 12 16 51 19 23 35 47 35 54 0 19 -37 36
-81 39 -55 3 -99 24 -99 46 0 24 -46 26 -72 2 -17 -15 -19 -15 -36 0 -31 29
-45 22 -38 -19 7 -33 6 -35 -13 -25 -29 16 -31 14 -31 -26 -1 -40 -19 -73 -40
-73 -9 0 -10 8 -5 28 4 15 8 46 10 70 4 39 1 43 -28 57 -18 8 -40 20 -51 27
-15 10 -19 10 -23 1 -3 -7 -14 -13 -25 -13 -11 0 -35 -9 -54 -20 l-33 -21 4
35 c2 25 -3 40 -19 54 -37 34 -59 40 -139 39 -62 -1 -81 -5 -94 -20z m167
-245 c0 -5 -7 -17 -16 -28 -14 -17 -15 -17 -10 -1 3 10 6 23 6 28 0 5 5 9 10
9 6 0 10 -4 10 -8z m-44 -54 c-3 -13 -6 -29 -6 -37 0 -10 -6 -8 -21 8 -20 22
-20 23 -3 36 27 21 37 18 30 -7z m-649 -29 c10 -26 9 -31 -5 -35 -9 -3 -26
-10 -36 -16 -16 -8 -18 -7 -11 9 4 10 12 30 17 46 13 35 21 34 35 -4z m75 -61
c10 -28 9 -96 -1 -103 -6 -3 -11 -18 -12 -33 -1 -25 -2 -24 -16 11 -20 47 -29
46 -60 -12 -1 -2 -19 7 -40 20 l-38 24 47 5 c60 7 103 38 103 74 -1 27 10 35
17 14z m-3048 -107 c3 -5 -6 -12 -20 -15 -29 -8 -39 -3 -29 13 8 13 42 14 49
2z m2981 -69 c17 -23 17 -25 1 -19 -10 4 -38 7 -63 7 -44 0 -45 1 -30 18 26
29 20 35 -12 13 -16 -12 -32 -21 -35 -21 -5 0 -5 3 13 52 l10 26 48 -25 c27
-15 57 -37 68 -51z m320 69 c3 -5 1 -12 -5 -16 -5 -3 -10 1 -10 9 0 18 6 21
15 7z m123 -33 c1 -35 -22 -68 -46 -68 -12 0 -12 3 4 15 18 13 18 14 -5 8 -17
-4 -22 -3 -17 5 4 7 16 12 26 12 10 0 22 5 26 12 5 8 -2 9 -24 5 -23 -5 -32
-3 -32 6 0 20 21 37 45 37 18 0 22 -6 23 -32z m-3388 -8 c0 -5 -5 -10 -11 -10
-5 0 -7 5 -4 10 3 6 8 10 11 10 2 0 4 -4 4 -10z m4102 4 c11 -10 -56 -104 -73
-104 -6 0 3 16 21 36 22 26 28 40 21 47 -6 6 -11 15 -11 19 0 9 34 11 42 2z
m-3307 -65 c-3 -5 2 -6 12 -2 15 5 16 3 6 -8 -23 -24 -14 -31 30 -25 78 11
128 10 137 -3 6 -10 12 -10 30 -1 12 6 29 9 37 6 14 -6 13 -9 -3 -27 -11 -12
-18 -29 -16 -39 5 -31 -28 -32 -45 -1 -17 28 -17 28 -33 8 -16 -19 -18 -19
-40 -4 -17 12 -27 13 -36 6 -9 -7 -22 -5 -46 7 -18 10 -38 17 -45 16 -10 -2
-11 14 -4 76 0 7 6 10 11 7 6 -4 8 -11 5 -16z m1035 2 c0 -6 -4 -13 -10 -16
-5 -3 -10 1 -10 9 0 9 5 16 10 16 6 0 10 -4 10 -9z m1187 -61 c1 -11 -1 -20
-3 -20 -11 0 -33 28 -27 34 13 13 29 5 30 -14z m-1307 -30 c0 -5 1 -13 3 -16
1 -3 -15 -12 -36 -19 -21 -7 -44 -21 -51 -31 -12 -16 -15 -15 -44 6 -30 22
-31 25 -16 41 14 16 35 21 122 27 12 1 22 -2 22 -8z m-540 -15 c0 -19 -9 -19
-34 0 -19 14 -19 15 7 15 17 0 27 -5 27 -15z m1960 -34 c0 -13 -65 -81 -78
-81 -18 0 -15 5 28 49 42 42 50 47 50 32z m1110 -10 c0 -6 -5 -13 -11 -16 -5
-4 -14 -18 -19 -31 -13 -33 -28 -30 -22 4 6 35 52 73 52 43z m-2428 -23 c-6
-6 -15 -8 -19 -4 -4 4 -1 11 7 16 19 12 27 3 12 -12z m-233 -7 c15 -10 5 -34
-12 -28 -11 3 -19 37 -9 37 4 0 13 -4 21 -9z m-1053 -41 c-30 -36 -34 -62 -9
-58 10 2 18 -4 18 -12 1 -21 16 -54 29 -63 7 -5 4 -13 -9 -22 -19 -15 -21 -12
-58 61 -21 42 -37 77 -35 78 47 22 78 41 78 49 0 6 3 8 6 4 4 -3 -5 -20 -20
-37z m2228 19 c-7 -11 -34 -12 -34 -1 0 14 11 21 26 15 8 -3 11 -9 8 -14z
m-3389 1 c3 -5 -1 -10 -9 -10 -8 0 -18 5 -21 10 -3 6 1 10 9 10 8 0 18 -4 21
-10z m2617 -42 c-13 -13 -26 8 -17 30 6 16 7 16 17 -1 7 -13 7 -22 0 -29z
m-2572 28 c0 -3 -4 -8 -10 -11 -5 -3 -10 -1 -10 4 0 6 5 11 10 11 6 0 10 -2
10 -4z m3461 -29 c-10 -9 -11 -8 -5 6 3 10 9 15 12 12 3 -3 0 -11 -7 -18z
m-3411 -6 c18 -34 8 -74 -28 -108 -21 -21 -30 -37 -25 -45 4 -7 8 -31 8 -53 0
-34 -5 -44 -40 -70 -23 -18 -43 -44 -49 -63 -6 -22 -15 -32 -28 -32 -13 0 -17
-4 -12 -12 4 -7 3 -9 -1 -5 -5 4 -10 13 -12 20 -23 101 -27 108 -48 103 -15
-4 -28 1 -40 14 -17 18 -17 21 3 54 11 19 17 36 13 38 -4 2 -11 15 -15 31 -6
25 -4 27 28 27 18 0 39 7 47 16 18 21 69 47 69 34 0 -5 5 -10 11 -10 7 0 18
-8 26 -17 14 -17 14 -17 10 3 -3 14 5 30 24 49 16 14 29 31 29 36 0 16 19 10
30 -10z m1412 -86 c13 -14 29 -25 35 -25 15 0 45 -55 36 -64 -3 -3 -21 5 -39
19 -19 14 -39 22 -48 19 -11 -4 -16 0 -16 14 0 10 -11 36 -25 56 -24 36 -24
38 -8 63 l18 26 12 -42 c7 -23 22 -53 35 -66z m1352 86 c3 -5 -1 -11 -9 -14
-9 -4 -12 -1 -8 9 6 16 10 17 17 5z m934 -25 c10 -10 7 -17 -13 -36 -14 -13
-25 -19 -25 -13 0 7 -12 26 -27 43 l-26 31 39 -6 c21 -4 45 -13 52 -19z
m-3075 -10 c17 -14 16 -17 -18 -55 -21 -22 -42 -38 -47 -35 -5 3 3 20 19 36
l28 31 -31 -6 c-22 -4 -33 -1 -41 12 -10 16 -8 18 19 19 16 0 33 3 36 6 8 9
15 7 35 -8z m3198 -37 c4 -18 7 -34 6 -35 -1 -1 -18 -4 -37 -7 l-35 -7 23 18
c17 13 22 25 18 46 -7 41 17 27 25 -15z m464 31 c-3 -5 -10 -10 -16 -10 -5 0
-9 5 -9 10 0 6 7 10 16 10 8 0 12 -4 9 -10z m-905 -50 c-40 -48 -76 -68 -64
-35 4 8 10 15 15 15 5 0 9 6 9 13 0 12 56 55 73 56 5 1 -10 -21 -33 -49z
m-2508 10 c2 -6 19 -5 45 2 24 5 50 8 59 4 14 -5 14 -7 0 -22 -17 -16 -14 -26
12 -56 8 -10 10 -18 5 -18 -14 0 -48 52 -45 68 3 15 -32 16 -59 2 -14 -8 -27
-7 -49 5 -16 9 -30 18 -30 20 0 9 58 5 62 -5z m4307 -64 c-29 -13 -44 5 -29
35 l12 22 19 -24 c18 -23 18 -24 -2 -33z m-5819 34 c0 -5 -5 -10 -11 -10 -5 0
-7 5 -4 10 3 6 8 10 11 10 2 0 4 -4 4 -10z m326 -48 c-13 -13 -18 -14 -28 -4
-11 11 -8 17 12 32 22 17 25 17 28 3 2 -8 -3 -23 -12 -31z m1600 14 c12 -18
12 -21 -1 -29 -16 -9 -75 26 -75 44 0 17 62 5 76 -15z m2107 -36 c-7 -14 -13
-34 -13 -45 0 -19 0 -19 -19 0 -35 37 -35 60 1 83 30 19 34 20 39 5 3 -10 0
-29 -8 -43z m1956 46 c12 -14 5 -46 -10 -46 -5 0 -9 3 -9 8 0 4 -3 17 -6 30
-7 25 7 29 25 8z m-4715 -12 c9 -22 9 -22 -19 -20 -28 1 -31 6 -13 24 16 16
25 15 32 -4z m1938 1 c0 -5 -5 -11 -11 -13 -6 -2 -11 4 -11 13 0 9 5 15 11 13
6 -2 11 -8 11 -13z m-3215 -1 c-3 -4 -2 -15 4 -25 6 -11 6 -19 0 -19 -9 0 -21
23 -21 41 0 5 5 9 12 9 6 0 8 -3 5 -6z m783 -14 c0 -6 -5 -19 -12 -29 -18 -29
-3 -51 36 -51 28 0 35 -4 40 -25 6 -25 2 -39 -18 -61 -8 -8 -16 1 -28 28 -12
27 -28 43 -48 51 -25 10 -30 16 -25 35 9 38 55 81 55 52z m155 -65 c-5 -40
-10 -55 -20 -52 -7 3 -17 1 -23 -5 -7 -7 -15 -1 -25 18 -14 27 -13 30 22 70
20 24 40 39 45 34 5 -5 5 -34 1 -65z m4963 43 c3 -22 0 -26 -17 -21 -22 6 -25
12 -15 38 9 23 28 13 32 -17z m-2363 -9 c8 -12 -2 -59 -13 -59 -15 0 -30 48
-19 59 14 14 24 14 32 0z m-2305 -16 c0 -3 -8 -15 -17 -25 -10 -11 -18 -27
-18 -36 -1 -9 -2 -31 -3 -49 -2 -28 -5 -32 -29 -31 -16 1 -34 0 -42 -3 -9 -3
-17 7 -21 27 -6 29 -4 34 31 54 22 12 47 32 57 45 16 23 42 34 42 18z m72 -15
c-7 -7 -12 -8 -12 -2 0 14 12 26 19 19 2 -3 -1 -11 -7 -17z m3223 2 c3 -5 -1
-10 -9 -10 -9 0 -16 5 -16 10 0 6 4 10 9 10 6 0 13 -4 16 -10z m2165 -31 c0
-5 -4 -9 -10 -9 -5 0 -10 7 -10 16 0 8 5 12 10 9 6 -3 10 -10 10 -16z m40 11
c-8 -5 -19 -10 -25 -10 -5 0 -3 5 5 10 8 5 20 10 25 10 6 0 3 -5 -5 -10z
m-4730 -22 c0 -19 -2 -20 -10 -8 -13 19 -13 30 0 30 6 0 10 -10 10 -22z m1120
13 c0 -12 -20 -25 -27 -18 -7 7 6 27 18 27 5 0 9 -4 9 -9z m-2106 -47 c25 -35
24 -73 -4 -94 -17 -12 -21 -23 -16 -36 9 -24 7 -27 -26 -31 -33 -3 -32 -5 -13
35 9 17 16 58 16 96 1 70 9 76 43 30z m866 7 c0 -14 -18 -23 -30 -16 -6 4 -8
11 -5 16 8 12 35 12 35 0z m-1220 -21 c0 -5 -4 -10 -10 -10 -5 0 -10 5 -10 10
0 6 5 10 10 10 6 0 10 -4 10 -10z m2930 0 c0 -5 -4 -10 -9 -10 -6 0 -13 5 -16
10 -3 6 1 10 9 10 9 0 16 -4 16 -10z m2758 -65 c9 -19 9 -25 -1 -25 -6 0 -22
-3 -33 -6 -18 -5 -22 -1 -26 25 -4 28 -2 31 22 31 19 0 30 -7 38 -25z m-4926
-3 c4 -14 14 -18 44 -17 21 1 44 4 49 5 6 2 30 -3 55 -10 25 -7 48 -13 53 -12
4 1 7 -5 7 -13 0 -12 -15 -15 -72 -15 -73 0 -218 29 -218 43 0 7 55 36 71 37
4 0 9 -8 11 -18z m-990 -9 c22 -20 25 -55 3 -47 -8 3 -17 14 -20 25 -4 11 -11
17 -16 14 -10 -7 -12 8 -2 18 9 10 15 9 35 -10z m1588 13 c0 -3 -4 -8 -10 -11
-5 -3 -10 -1 -10 4 0 6 5 11 10 11 6 0 10 -2 10 -4z m-1632 -71 c-2 -29 2 -38
23 -49 43 -22 84 -25 133 -11 51 16 52 15 32 -23 -7 -15 -16 -39 -20 -54 -6
-25 -3 -28 17 -28 13 0 32 9 42 20 24 27 35 16 24 -23 -5 -17 -9 -45 -9 -61 0
-24 -2 -27 -15 -16 -13 11 -18 10 -29 -5 -9 -13 -15 -15 -20 -6 -4 6 0 14 8
17 22 8 20 27 -4 49 -11 10 -20 15 -20 11 0 -4 -6 -4 -12 1 -20 12 -36 14
-144 21 -23 1 -34 9 -44 30 -12 25 -13 26 -20 7 -4 -11 -6 -23 -3 -27 6 -11
-9 -10 -26 1 -10 6 -12 23 -8 59 6 57 22 92 41 92 8 0 19 7 26 15 21 25 32 17
28 -20z m292 5 c0 -5 -7 -10 -16 -10 -8 0 -12 5 -9 10 3 6 10 10 16 10 5 0 9
-4 9 -10z m5635 -25 c-36 -29 -45 -31 -45 -7 0 26 9 32 44 32 l31 0 -30 -25z
m65 16 c0 -12 -20 -25 -27 -18 -7 7 6 27 18 27 5 0 9 -4 9 -9z m-6573 -26 c1
-5 -8 -15 -21 -21 -20 -9 -26 -9 -31 4 -6 17 12 33 34 29 8 -1 16 -6 18 -12z
m1808 -7 c-12 -38 -22 -42 -51 -19 -36 29 -52 13 -30 -30 17 -33 10 -48 -21
-49 -7 0 -28 -14 -48 -31 -30 -26 -35 -28 -35 -13 0 11 -14 41 -31 68 l-31 49
-21 -21 c-14 -15 -21 -33 -20 -58 1 -32 -1 -35 -20 -30 -12 3 -28 6 -35 6 -17
0 -5 49 20 77 25 27 16 43 -25 43 -23 0 -28 3 -20 11 9 9 23 9 57 0 63 -15
138 -14 162 4 12 9 43 14 87 15 66 0 68 -1 62 -22z m-1405 -30 c0 -5 -4 -8
-10 -8 -5 0 -10 10 -10 23 0 18 2 19 10 7 5 -8 10 -18 10 -22z m1585 22 c3 -5
2 -10 -4 -10 -5 0 -13 5 -16 10 -3 6 -2 10 4 10 5 0 13 -4 16 -10z m-106 -53
c-1 -17 -2 -18 -6 -4 -9 35 -43 8 -43 -35 0 -20 -5 -28 -18 -28 -10 0 -21 3
-24 6 -9 8 21 77 39 91 22 17 53 -1 52 -30z m3304 26 c-7 -2 -19 -2 -25 0 -7
3 -2 5 12 5 14 0 19 -2 13 -5z m-2826 -28 c19 -20 18 -21 -35 -30 l-43 -7 23
25 c28 30 35 32 55 12z m-577 -4 c0 -6 -4 -13 -10 -16 -5 -3 -10 1 -10 9 0 9
5 16 10 16 6 0 10 -4 10 -9z m3570 5 c0 -11 -19 -15 -25 -6 -3 5 1 10 9 10 9
0 16 -2 16 -4z m200 -46 c0 -5 -5 -10 -11 -10 -5 0 -7 5 -4 10 3 6 8 10 11 10
2 0 4 -4 4 -10z m-5375 -61 c15 -28 12 -79 -5 -79 -14 0 -42 78 -35 99 8 26
20 20 40 -20z m4044 -16 c-6 -15 -9 -44 -7 -65 1 -21 -2 -39 -7 -40 -14 -4
-19 72 -6 85 6 6 11 19 11 29 0 10 4 18 10 18 6 0 6 -10 -1 -27z m-3934 -4 c3
6 13 11 21 11 22 0 17 -34 -8 -49 -13 -8 -34 -21 -47 -30 l-24 -16 18 30 19
30 -27 -24 c-29 -26 -48 -24 -22 3 9 9 14 20 11 25 -4 5 -3 16 0 25 5 14 8 14
29 0 15 -10 25 -12 30 -5z m1037 -71 c-7 -7 -12 -8 -12 -2 0 14 12 26 19 19 2
-3 -1 -11 -7 -17z m352 -23 c20 -11 13 -40 -10 -49 -12 -4 -14 -1 -9 14 8 24
-2 26 -27 3 -21 -19 -32 -11 -42 28 -8 34 28 54 54 30 9 -9 25 -20 34 -26z
m-904 31 c0 -3 -4 -8 -10 -11 -5 -3 -10 -1 -10 4 0 6 5 11 10 11 6 0 10 -2 10
-4z m3937 -22 c3 -8 -1 -22 -8 -29 -12 -12 -14 -10 -15 15 -1 32 13 40 23 14z
m-3324 -24 c3 -11 2 -20 -3 -20 -8 0 -20 24 -20 41 0 17 17 1 23 -21z m-648 0
c-3 -5 -11 -10 -16 -10 -6 0 -7 5 -4 10 3 6 11 10 16 10 6 0 7 -4 4 -10z
m-605 -26 c0 -8 -6 -14 -14 -14 -9 0 -12 7 -9 20 6 22 23 18 23 -6z m1600 22
c0 -3 -4 -8 -10 -11 -5 -3 -10 -1 -10 4 0 6 5 11 10 11 6 0 10 -2 10 -4z
m3308 -8 c6 -6 27 -11 46 -10 29 1 38 -4 56 -33 11 -18 26 -35 33 -38 8 -3 6
-11 -7 -25 -14 -16 -17 -31 -13 -56 6 -40 30 -66 75 -85 18 -7 32 -19 32 -27
0 -20 76 -37 110 -26 25 9 29 7 41 -16 7 -15 15 -29 16 -32 2 -3 -17 -6 -41
-6 -46 -1 -93 -24 -103 -50 -7 -19 44 -74 69 -74 10 0 18 -7 18 -16 0 -13 7
-15 30 -11 l29 6 -30 -49 c-17 -27 -34 -52 -39 -55 -5 -3 -16 10 -25 28 -9 19
-31 49 -49 66 l-34 33 -18 -28 c-10 -16 -19 -31 -20 -33 -2 -2 -10 4 -19 13
-22 22 -75 22 -75 0 0 -13 -7 -16 -39 -11 -36 4 -39 3 -55 -29 -9 -19 -16 -41
-16 -48 0 -8 -11 -21 -24 -29 -22 -15 -25 -15 -41 3 -9 10 -30 22 -46 25 -20
5 -29 13 -29 26 0 10 5 19 10 19 6 0 10 5 10 11 0 6 7 17 15 25 21 21 19 73
-5 112 -11 18 -20 35 -20 37 0 14 39 2 55 -15 28 -31 58 -22 68 20 14 54 20
140 10 140 -5 0 -21 18 -36 40 l-26 40 27 -6 c15 -4 29 -8 31 -10 2 -2 12 1
21 6 15 8 18 4 18 -32 1 -69 16 -63 58 22 38 77 39 80 18 80 -12 0 -33 -9 -47
-20 -32 -25 -37 -25 -37 0 0 29 -26 76 -52 95 -20 13 -21 17 -8 25 20 13 44
12 58 -2z m-4728 -14 c0 -8 -4 -12 -10 -9 -5 3 -10 10 -10 16 0 5 5 9 10 9 6
0 10 -7 10 -16z m4080 6 c0 -5 -5 -10 -11 -10 -5 0 -7 5 -4 10 3 6 8 10 11 10
2 0 4 -4 4 -10z m-4327 -46 c-25 -19 -32 -17 -26 5 3 13 11 17 24 14 18 -5 19
-6 2 -19z m515 -7 c19 -20 30 -23 82 -21 33 2 65 6 70 9 6 3 10 -5 10 -19 0
-14 -5 -28 -11 -32 -6 -3 -9 -15 -6 -25 3 -10 -5 -30 -19 -46 -13 -15 -24 -33
-24 -39 0 -6 -9 -28 -21 -50 -11 -21 -18 -32 -15 -23 2 9 -1 27 -8 40 -6 13
-12 35 -13 48 -1 13 -11 33 -22 45 -12 12 -21 27 -21 32 0 5 -24 24 -52 42
-45 27 -49 32 -28 33 14 0 19 3 11 6 -11 5 -11 7 0 14 23 15 44 10 67 -14z
m-158 3 c0 -5 -2 -10 -4 -10 -3 0 -8 5 -11 10 -3 6 -1 10 4 10 6 0 11 -4 11
-10z m-70 -14 c0 -3 -4 -8 -10 -11 -5 -3 -10 -1 -10 4 0 6 5 11 10 11 6 0 10
-2 10 -4z m6325 -6 c3 -5 1 -10 -4 -10 -6 0 -11 5 -11 10 0 6 2 10 4 10 3 0 8
-4 11 -10z m-6595 -67 c0 -15 -26 -18 -35 -3 -3 6 -3 20 1 32 6 21 7 21 20 3
8 -10 14 -25 14 -32z m217 15 c-3 -7 -5 -2 -5 12 0 14 2 19 5 13 2 -7 2 -19 0
-25z m1859 21 c3 -6 21 -17 39 -25 31 -13 32 -15 22 -39 -7 -14 -15 -25 -18
-25 -16 0 -69 60 -69 78 0 23 14 29 26 11z m3117 -14 c-22 -29 -33 -32 -33 -7
0 24 8 32 32 32 18 0 18 -1 1 -25z m133 10 c4 -8 12 -15 20 -15 8 0 14 -5 14
-11 0 -7 -12 -8 -32 -4 -40 9 -42 10 -35 30 8 19 26 19 33 0z m1284 11 c0 -3
-4 -8 -10 -11 -5 -3 -10 -1 -10 4 0 6 5 11 10 11 6 0 10 -2 10 -4z m-1792 -43
c-9 -10 -18 -25 -21 -33 -4 -12 -6 -11 -12 4 -6 13 -3 23 10 32 27 20 41 17
23 -3z m-4617 -96 c25 -34 49 -70 53 -81 5 -16 3 -18 -21 -12 -70 16 -83 16
-105 2 -21 -14 -25 -13 -45 10 l-22 24 22 12 c32 16 38 29 32 65 -5 30 0 36
35 41 3 1 26 -27 51 -61z m6424 53 c3 -5 -1 -10 -9 -10 -9 0 -16 5 -16 10 0 6
4 10 9 10 6 0 13 -4 16 -10z m52 4 c-3 -3 -12 -4 -19 -1 -8 3 -5 6 6 6 11 1
17 -2 13 -5z m-6737 -84 c-7 -12 -9 -36 -6 -52 5 -24 2 -30 -21 -39 -46 -17
-53 -39 -23 -69 35 -35 -7 -24 -46 12 -40 38 -43 58 -11 58 13 0 34 11 47 25
19 20 22 32 18 69 -6 51 7 64 36 36 15 -15 16 -21 6 -40z m-1194 11 c-3 -5
-16 -11 -28 -14 -22 -6 -22 -5 -4 8 22 17 40 20 32 6z m2972 -41 c7 0 12 -4
12 -10 0 -5 -14 -10 -31 -10 -48 0 -88 -29 -95 -69 -6 -30 -8 -32 -19 -18 -7
10 -17 17 -24 17 -6 0 -11 5 -11 10 0 6 5 10 10 10 6 0 10 7 10 15 0 8 11 22
26 31 14 9 32 30 40 47 l16 29 27 -26 c15 -14 32 -26 39 -26z m3712 30 c-26
-20 -55 -23 -52 -5 1 6 6 10 11 10 5 0 13 3 17 8 4 4 17 7 28 7 20 0 20 -1 -4
-20z m-6486 -5 c6 -17 4 -18 -18 -9 -20 8 -21 24 -2 24 8 0 16 -7 20 -15z
m1782 -5 c8 0 14 -4 14 -9 0 -11 -46 -20 -72 -13 -20 5 -20 6 -2 19 10 7 25
11 32 8 8 -3 20 -5 28 -5z m264 -11 c0 -5 -5 -7 -10 -4 -6 4 -19 1 -28 -7 -15
-12 -16 -11 -3 5 15 19 41 23 41 6z m174 -25 c8 -20 -7 -40 -35 -47 -28 -7
-36 19 -14 43 22 24 41 26 49 4z m-517 -7 c6 18 43 -18 43 -42 0 -25 33 -63
66 -75 21 -8 22 -12 13 -39 -16 -45 -29 -52 -73 -40 -41 11 -39 3 -20 99 4 20
2 30 -7 30 -7 0 -9 3 -6 7 11 10 -24 43 -45 43 -18 0 -24 11 -11 23 3 4 13 1
21 -6 12 -9 16 -9 19 0z m1153 0 c0 -19 -10 -27 -26 -20 -11 4 -12 9 -3 19 15
18 29 18 29 1z m-3253 -24 c9 -16 24 -34 32 -42 14 -11 10 -12 -24 -6 -22 3
-49 15 -60 26 -19 19 -19 19 0 34 27 20 32 19 52 -12z m65 -13 c3 -19 1 -29
-6 -27 -6 2 -12 18 -14 36 -4 41 14 33 20 -9z m2363 10 c19 -37 19 -42 -2 -66
-10 -10 -25 -28 -33 -38 -14 -18 -13 -18 8 -12 17 6 33 1 58 -16 18 -12 34
-26 34 -30 0 -14 -38 -9 -75 9 -34 16 -39 16 -88 -1 -28 -10 -56 -25 -62 -32
-6 -8 -15 -10 -23 -5 -17 11 12 87 39 102 11 5 19 16 19 24 0 18 13 26 52 31
33 4 48 18 48 47 0 25 7 21 25 -13z m4632 1 c14 -19 8 -28 -9 -14 -7 5 -25 8
-40 7 -31 -3 -31 -3 -22 20 7 19 53 11 71 -13z m-4548 -24 c0 -21 -1 -21 -9
-2 -12 28 -12 37 0 30 6 -3 10 -16 9 -28z m-1299 14 c0 -5 -11 -16 -25 -25
-29 -19 -33 -11 -8 16 17 19 33 24 33 9z m1415 -1 c3 -5 1 -10 -4 -10 -6 0
-11 5 -11 10 0 6 2 10 4 10 3 0 8 -4 11 -10z m680 -30 c10 -11 26 -22 36 -25
11 -4 19 -16 19 -29 0 -13 7 -29 15 -36 8 -7 15 -22 15 -34 0 -12 4 -26 9 -31
5 -6 12 -29 16 -53 l7 -42 -33 32 c-27 26 -34 41 -34 72 -1 45 -15 54 -82 55
l-41 1 10 38 c12 45 26 72 37 72 4 0 16 -9 26 -20z m3732 -17 c-15 -16 -17
-16 -17 -1 0 9 6 18 13 21 20 7 22 -2 4 -20z m263 17 c0 -5 -13 -19 -30 -31
-40 -30 -64 -82 -50 -108 23 -45 -53 -37 -99 10 -24 24 -28 34 -22 56 7 27 9
28 67 25 55 -3 61 -1 88 27 30 32 46 39 46 21z m-4835 -30 c-3 -5 -11 -10 -16
-10 -6 0 -7 5 -4 10 3 6 11 10 16 10 6 0 7 -4 4 -10z m369 -41 c-8 -8 -17 -30
-20 -47 -6 -32 -51 -78 -63 -66 -3 3 2 10 12 15 26 15 21 41 -15 71 l-33 26
35 7 c20 3 46 15 60 25 23 18 25 18 31 2 4 -9 0 -24 -7 -33z m4189 -1 c-6 -28
-4 -31 15 -26 12 4 22 5 22 3 0 -14 -41 -95 -48 -95 -5 0 -37 18 -71 40 -34
22 -64 40 -66 40 -13 0 -2 -51 16 -73 15 -20 33 -28 70 -33 27 -4 49 -10 49
-13 0 -13 -72 -121 -80 -121 -24 0 -40 15 -40 36 0 20 -4 23 -22 19 -21 -4
-68 19 -57 29 2 2 42 11 89 20 l85 15 -75 -5 c-43 -3 -87 -1 -103 5 l-28 11
35 62 c25 44 41 62 53 61 74 -10 78 -9 116 24 20 18 39 33 42 33 2 0 2 -14 -2
-32z m1062 22 c-3 -5 -13 -10 -21 -10 -8 0 -14 5 -14 10 0 6 9 10 21 10 11 0
17 -4 14 -10z m-6795 -46 c0 -8 -4 -12 -10 -9 -5 3 -10 10 -10 16 0 5 5 9 10
9 6 0 10 -7 10 -16z m1821 -3 l27 -6 -28 -25 -27 -25 -22 21 c-25 24 -19 60 8
48 9 -3 28 -9 42 -13z m89 12 c0 -5 -5 -15 -10 -23 -7 -12 -12 -12 -22 -2 -10
10 -10 15 2 22 18 12 30 13 30 3z m-1860 -43 c0 -5 -2 -10 -4 -10 -3 0 -8 5
-11 10 -3 6 -1 10 4 10 6 0 11 -4 11 -10z m-700 -6 c0 -3 -5 -14 -10 -24 -6
-11 -12 -34 -14 -52 -2 -18 -4 -36 -5 -40 -1 -7 -41 1 -41 9 0 2 5 13 10 24
15 27 4 42 -22 28 -16 -9 -23 -8 -29 2 -14 22 -6 43 21 50 31 9 90 11 90 3z
m1537 -19 c36 -12 -24 -55 -77 -55 -19 0 -28 -4 -25 -13 3 -6 -5 -18 -17 -26
-20 -12 -24 -11 -41 10 l-19 24 46 14 c40 13 46 18 46 42 0 27 1 27 38 18 20
-6 43 -12 49 -14z m-1932 -4 c3 -5 1 -12 -4 -15 -5 -3 -11 1 -15 9 -6 16 9 21
19 6z m7799 -6 c3 -8 12 -15 20 -15 12 0 137 -120 143 -138 2 -4 -13 -18 -32
-31 -28 -19 -38 -21 -49 -12 -19 16 -11 35 20 49 13 7 24 17 24 23 0 7 -3 9
-7 6 -3 -4 -12 2 -19 12 -14 19 -82 41 -128 41 -28 0 -32 13 -16 54 10 29 35
34 44 11z m-7536 -22 c-2 -22 -8 -28 -27 -28 -31 0 -39 21 -12 30 12 3 21 11
21 16 0 5 5 9 11 9 6 0 9 -12 7 -27z m2302 -3 c0 -5 7 -10 15 -10 8 0 15 -4
15 -10 0 -5 23 -17 50 -27 28 -10 62 -27 76 -38 24 -19 25 -21 10 -50 -9 -17
-13 -38 -10 -47 4 -15 0 -15 -53 2 -80 24 -127 46 -142 64 -7 8 -18 13 -26 10
-7 -3 -27 2 -44 11 l-31 16 37 32 c49 44 103 68 103 47z m-2496 -44 c-4 -11
-7 -38 -8 -59 l0 -38 -30 30 c-30 30 -30 31 -14 65 14 27 21 33 38 29 17 -5
20 -10 14 -27z m512 5 c26 21 14 -6 -20 -44 l-33 -37 -43 15 c-23 8 -46 12
-51 9 -5 -3 -6 2 -3 10 3 9 10 16 14 16 5 0 10 7 12 16 2 12 16 17 46 19 24 1
46 6 50 10 4 4 9 -1 10 -10 3 -13 7 -14 18 -4z m1100 -18 c37 -50 36 -52 -6
-36 -31 12 -40 21 -40 40 0 31 22 29 46 -4z m218 -15 c-4 -13 -15 -41 -24 -63
-16 -37 -17 -38 -17 -12 0 15 -9 37 -18 47 -10 11 -16 22 -14 24 14 12 47 25
62 26 14 0 17 -5 11 -22z m76 -10 c16 23 36 28 59 13 11 -7 7 -13 -18 -25 -35
-19 -39 -36 -13 -59 10 -9 31 -44 47 -77 16 -33 33 -60 37 -60 5 0 4 9 -2 20
-12 23 -11 24 25 10 19 -7 27 -6 30 3 5 12 70 16 81 4 8 -8 -16 -48 -25 -42
-5 2 -22 0 -39 -6 -31 -11 -45 -36 -56 -98 -3 -19 -15 -41 -26 -48 -14 -10
-19 -21 -15 -34 13 -39 -11 -17 -52 48 -30 49 -39 72 -32 84 9 17 -10 40 -43
52 -9 3 -24 19 -32 36 -14 26 -14 34 0 83 9 29 23 71 32 93 l17 40 5 -30 6
-30 14 23z m4821 5 c-12 -20 -14 -14 -5 12 4 9 9 14 11 11 3 -2 0 -13 -6 -23z
m-7051 -3 c0 -5 -2 -10 -4 -10 -3 0 -8 5 -11 10 -3 6 -1 10 4 10 6 0 11 -4 11
-10z m850 -35 c-7 -9 -15 -13 -18 -10 -3 2 1 11 8 20 7 9 15 13 18 10 3 -2 -1
-11 -8 -20z m6201 -48 c-4 -4 -15 -5 -24 -2 -13 6 -14 12 -4 38 l11 32 12 -30
c7 -17 9 -34 5 -38z m128 47 c7 -7 -32 -56 -59 -73 l-23 -16 6 39 c8 49 24 68
51 60 12 -4 23 -8 25 -10z m-769 -9 c0 -3 -5 -14 -12 -24 -14 -23 -4 -53 17
-45 16 7 21 -11 5 -21 -13 -8 -46 11 -54 31 -7 18 18 64 34 64 6 0 10 -2 10
-5z m-6139 -57 l43 -51 -39 7 c-62 12 -95 33 -95 61 0 21 9 28 42 34 3 0 26
-22 49 -51z m1654 15 c13 -16 25 -33 25 -40 0 -6 14 -23 31 -37 27 -23 29 -28
15 -41 -16 -16 -86 -21 -86 -6 0 6 4 12 9 16 14 8 4 85 -14 105 -15 17 -19 30
-10 30 3 0 17 -12 30 -27z m4710 -21 c-5 -13 -8 -14 -15 -3 -5 8 -3 19 3 26
14 15 22 1 12 -23z m-6080 -5 c4 5 5 3 1 -4 -3 -6 -2 -14 4 -18 5 -3 10 -11
10 -16 0 -13 -41 9 -57 30 -20 25 -15 33 10 16 13 -8 27 -12 32 -8z m-150 4
c3 -5 1 -12 -5 -16 -5 -3 -10 1 -10 9 0 18 6 21 15 7z m2510 -27 c44 -14 82
-28 84 -30 2 -2 -4 -13 -14 -24 -21 -24 -18 -24 26 -6 44 18 79 6 79 -27 0
-13 3 -27 7 -30 3 -4 8 -18 9 -32 4 -36 -17 -32 -71 15 -25 22 -54 40 -64 40
-22 0 -41 19 -41 42 0 28 -45 51 -89 45 -36 -4 -38 -3 -33 20 2 13 10 22 16
19 6 -2 47 -17 91 -32z m-1375 10 c0 -8 -5 -12 -10 -9 -6 4 -8 11 -5 16 9 14
15 11 15 -7z m-898 -24 c4 -14 10 -38 13 -54 3 -16 22 -45 41 -64 42 -42 38
-52 -9 -23 -50 31 -64 50 -80 114 -15 58 -15 58 6 55 13 -2 25 -13 29 -28z
m5554 -90 c1 -60 -3 -110 -7 -110 -5 0 -9 13 -9 28 0 39 -9 45 -37 27 -22 -15
-23 -15 -24 17 -4 79 2 103 29 125 15 12 32 22 37 23 7 0 11 -40 11 -110z
m182 67 c20 5 22 2 22 -30 0 -20 -5 -39 -10 -42 -7 -4 -9 2 -4 19 7 29 2 31
-27 16 -15 -9 -19 -7 -19 5 0 13 -4 14 -21 5 -11 -7 -21 -10 -22 -8 -1 2 -8
13 -14 25 -7 13 -13 27 -13 32 0 20 36 17 60 -5 17 -16 33 -21 48 -17z m542
29 c0 -20 -11 -46 -19 -46 -4 0 -6 14 -3 30 4 30 22 43 22 16z m1467 -49 c11
4 13 -1 7 -23 -9 -37 -7 -36 -37 -25 -13 5 -35 7 -47 4 -22 -6 -40 9 -40 36 0
10 6 9 28 -4 15 -10 21 -12 15 -4 -21 22 -15 27 23 19 20 -5 43 -6 51 -3z
m-6592 -27 c3 -5 1 -10 -4 -10 -6 0 -11 5 -11 10 0 6 2 10 4 10 3 0 8 -4 11
-10z m4258 -38 c-3 -12 -9 -22 -14 -22 -12 0 -11 7 3 30 15 24 19 21 11 -8z
m1851 -42 c19 0 26 -5 26 -20 0 -14 -7 -20 -21 -20 -27 0 -79 -31 -79 -47 0
-7 -4 -13 -10 -13 -5 0 -10 -9 -10 -20 0 -11 -4 -20 -10 -20 -12 0 -12 4 -1
52 6 24 5 40 -3 48 -8 8 -8 13 0 18 20 13 22 37 5 56 -13 16 -6 14 31 -7 26
-15 58 -27 72 -27z m-7435 -19 c28 -32 51 -63 51 -68 0 -22 -26 -62 -40 -60
-9 1 -16 -9 -20 -27 -7 -40 -26 -43 -33 -6 -4 18 -16 34 -29 41 -13 5 -33 16
-46 23 l-23 14 24 6 c29 7 51 53 49 102 -1 19 3 34 7 34 5 0 32 -26 60 -59z
m7746 49 c-3 -5 -11 -10 -16 -10 -6 0 -7 5 -4 10 3 6 11 10 16 10 6 0 7 -4 4
-10z m-7598 -38 c18 -56 0 -63 -48 -17 -39 39 -39 40 -17 46 47 11 54 8 65
-29z m1158 18 c3 -5 16 -10 29 -10 32 0 37 -9 19 -36 -16 -24 -43 -33 -43 -13
0 6 -7 3 -16 -5 -12 -12 -20 -13 -35 -6 -20 11 -26 30 -9 30 5 0 12 11 16 25
6 25 28 33 39 15z m1278 -12 c27 -20 28 -22 11 -28 -10 -4 -19 -12 -19 -19 0
-6 -3 -11 -7 -11 -5 0 -12 0 -17 0 -4 0 -8 18 -8 40 0 22 2 40 4 40 3 0 19
-10 36 -22z m-1043 -38 c43 -30 88 -37 104 -15 7 10 20 16 28 13 14 -6 148
-210 148 -227 0 -4 -44 0 -97 9 -54 10 -141 24 -193 30 -52 7 -99 16 -103 20
-5 5 1 18 12 29 12 12 20 29 19 38 -2 11 6 19 22 23 20 5 22 7 8 12 -13 5 -15
14 -8 42 4 19 5 37 2 40 -15 16 34 3 58 -14z m-545 -20 c3 -5 1 -10 -4 -10 -6
0 -11 5 -11 10 0 6 2 10 4 10 3 0 8 -4 11 -10z m4385 -5 c-7 -9 -15 -13 -17
-11 -7 7 7 26 19 26 6 0 6 -6 -2 -15z m-2920 -20 c19 -22 -12 -50 -40 -35 -22
12 -22 12 -14 34 8 20 38 21 54 1z m3017 -29 c31 24 36 25 50 11 13 -13 14
-23 3 -66 -6 -28 -17 -51 -23 -51 -7 0 -25 9 -42 20 -16 11 -47 20 -67 20 -42
0 -45 4 -23 27 12 12 13 18 4 29 -9 11 -8 18 2 30 11 13 15 12 37 -16 l24 -31
35 27z m-4549 -8 c-2 -13 -7 -23 -13 -23 -5 0 -11 10 -13 23 -2 15 2 22 13 22
11 0 15 -7 13 -22z m2022 12 c0 -5 -5 -10 -11 -10 -5 0 -7 5 -4 10 3 6 8 10
11 10 2 0 4 -4 4 -10z m-2820 -122 c0 -6 -6 -5 -15 2 -8 7 -15 14 -15 16 0 2
7 1 15 -2 8 -4 15 -11 15 -16z m6870 -13 c13 -16 31 -34 38 -38 10 -7 10 -12
2 -22 -7 -8 -9 -18 -6 -24 4 -5 -4 -11 -16 -13 -20 -3 -18 -5 15 -28 20 -14
37 -29 37 -34 0 -13 -77 2 -142 27 -58 22 -74 37 -40 37 9 0 25 7 35 15 19 13
19 34 0 98 -8 30 47 17 77 -18z m-7015 15 c-3 -5 -16 -10 -28 -10 -18 0 -19 2
-7 10 20 13 43 13 35 0z m100 -7 c39 -18 48 -39 13 -27 -13 5 -33 8 -45 9 -22
0 -30 15 -16 28 9 9 7 9 48 -10z m1212 -14 c19 -19 23 -20 28 -7 5 12 14 14
40 8 19 -4 36 -6 38 -3 3 2 35 -1 71 -8 l67 -11 -24 -24 c-26 -26 -40 -73 -31
-99 5 -12 -2 -15 -31 -15 -32 0 -36 2 -25 15 11 13 7 15 -28 15 -23 0 -44 5
-48 11 -3 6 -17 8 -31 4 -23 -5 -24 -3 -21 27 2 28 -1 35 -26 46 -19 10 -25
17 -16 22 9 5 9 9 1 14 -6 4 -11 11 -11 17 0 16 23 10 47 -12z m5093 11 c0 -5
-4 -10 -10 -10 -5 0 -10 5 -10 10 0 6 5 10 10 10 6 0 10 -4 10 -10z m-3899
-66 c6 -7 2 -17 -9 -26 -22 -20 -83 -51 -88 -45 -2 2 9 21 26 42 16 21 30 44
30 51 0 19 24 23 29 5 2 -9 7 -21 12 -27z m4094 26 c4 -6 -5 -10 -20 -10 -15
0 -24 4 -20 10 3 6 12 10 20 10 8 0 17 -4 20 -10z m-4591 -10 c7 0 20 -16 29
-36 11 -21 23 -34 30 -31 9 3 18 -10 26 -38 24 -82 9 -80 -55 7 -78 107 -82
113 -60 105 10 -4 23 -7 30 -7z m-191 -30 c57 -12 59 -13 103 -82 25 -39 43
-73 40 -76 -5 -5 -276 37 -285 44 -2 2 2 11 9 20 11 13 11 17 1 24 -18 10 -25
81 -10 90 6 4 27 4 48 0 20 -5 62 -14 94 -20z m4696 -4 c-8 -16 -17 -22 -30
-19 -10 3 -19 7 -19 9 0 3 50 32 57 34 2 0 -2 -11 -8 -24z m1484 -22 c2 -13 1
-27 -4 -30 -9 -5 -29 28 -29 50 0 24 27 8 33 -20z m-2843 -34 c0 -5 -5 -10
-11 -10 -5 0 -7 5 -4 10 3 6 8 10 11 10 2 0 4 -4 4 -10z m1794 -26 c9 -3 13
-10 10 -15 -8 -14 -21 -11 -28 6 -6 17 -4 18 18 9z m-6844 -58 c0 -45 -17 -70
-38 -57 -9 6 -8 18 4 54 20 59 34 60 34 3z m7500 14 c0 -5 -9 -6 -20 -3 -11 3
-17 9 -15 14 7 10 35 1 35 -11z m-835 -28 c-4 -19 -14 -32 -28 -36 -11 -3 -23
-4 -25 -2 -6 7 27 64 40 69 19 6 21 2 13 -31z m-5243 -14 c-6 -6 -15 -8 -19
-4 -4 4 -1 11 7 16 19 12 27 3 12 -12z m152 16 c13 -5 9 -10 -16 -23 -29 -15
-48 -38 -79 -98 -7 -13 -17 -23 -23 -24 -6 0 -21 -2 -33 -5 -13 -2 -23 -1 -23
2 0 3 20 29 45 57 25 29 48 62 51 75 6 22 42 30 78 16z m-104 -18 c0 -15 -18
-31 -26 -23 -7 7 7 37 17 37 5 0 9 -6 9 -14z m322 -27 l117 -23 52 -75 c29
-42 74 -104 101 -139 42 -54 48 -68 43 -93 -6 -25 -11 -29 -39 -29 -18 0 -55
-3 -81 -7 l-47 -6 12 24 c7 13 22 35 34 48 23 26 25 26 -39 6 -17 -5 -22 0
-30 26 -12 39 -35 51 -35 17 0 -12 -6 -43 -14 -68 -15 -52 -19 -53 -175 -64
-99 -7 -99 -7 -104 16 -4 21 -4 20 -6 -4 -1 -32 -9 -34 -37 -14 -22 16 -24 14
39 50 51 29 91 76 69 84 -17 5 -15 19 8 42 24 24 28 105 6 136 -8 11 -17 40
-20 63 -4 36 -3 41 12 38 9 -3 70 -15 134 -28z m6258 3 l22 -18 -42 -13 c-40
-12 -44 -11 -64 9 -18 18 -19 22 -6 30 24 15 66 12 90 -8z m-7470 -27 c13 -14
21 -28 17 -31 -9 -9 -27 5 -27 22 0 8 -9 14 -21 14 -11 0 -17 5 -14 10 10 15
20 12 45 -15z m5840 10 c0 -8 -4 -15 -10 -15 -5 0 -10 7 -10 15 0 8 5 15 10
15 6 0 10 -7 10 -15z m-6407 -39 c3 -7 21 -16 40 -20 29 -5 34 -10 30 -26 -10
-39 -103 -9 -103 32 0 28 24 38 33 14z m6627 -21 c19 -19 41 -35 49 -35 14 0
14 -1 1 -10 -8 -5 -25 -10 -38 -10 -13 0 -34 -12 -48 -27 -35 -37 -124 -44
-93 -7 7 8 10 32 7 57 l-5 44 41 10 c23 5 43 11 47 12 3 0 20 -15 39 -34z
m1350 -12 c0 9 5 17 10 17 18 0 24 -31 9 -45 -15 -13 -80 -32 -67 -19 14 13
-14 34 -45 34 l-31 0 29 30 29 30 33 -32 c25 -24 33 -28 33 -15z m-7860 -2
c-19 -16 -36 -28 -38 -26 -7 7 12 34 31 43 39 19 42 13 7 -17z m85 -13 c-4
-13 -17 -30 -28 -38 -12 -8 -32 -25 -43 -38 -19 -19 -23 -20 -28 -6 -12 32 -5
45 41 74 56 36 66 37 58 8z m6185 -79 c0 -23 111 -139 133 -139 9 0 21 -9 27
-20 9 -17 17 -20 44 -14 32 6 34 4 38 -29 3 -28 -3 -42 -29 -72 -18 -21 -33
-33 -33 -26 0 7 -8 11 -18 9 -10 -2 -34 5 -53 14 -19 9 -52 20 -74 25 -31 6
-41 13 -43 31 -2 13 2 30 9 38 7 9 14 33 16 54 3 31 -1 43 -27 68 -16 17 -30
39 -30 50 0 11 -9 30 -20 44 -13 17 -16 28 -9 35 14 14 69 -42 69 -68z m1812
37 c39 -6 57 -17 104 -62 31 -30 54 -57 51 -60 -3 -3 -12 -2 -19 2 -16 11 -34
11 -77 2 -23 -4 -41 -2 -57 9 -22 14 -43 14 -119 1 -16 -2 -19 2 -16 22 2 14
5 34 6 45 1 11 3 24 4 28 0 5 15 6 31 2 34 -7 39 1 13 21 -16 13 -15 13 7 5
14 -4 46 -11 72 -15z m-7522 10 c0 -3 -4 -8 -10 -11 -5 -3 -10 -1 -10 4 0 6 5
11 10 11 6 0 10 -2 10 -4z m1474 -12 c9 -8 16 -22 16 -31 0 -11 -6 -8 -20 10
-29 37 -26 52 4 21z m4681 -21 c-9 -36 19 -64 56 -56 27 5 29 4 21 -18 -5 -13
-12 -23 -16 -23 -71 12 -140 13 -170 0 l-34 -14 -4 36 c-3 21 -8 44 -12 54 -6
13 0 18 26 23 18 4 38 11 43 15 15 11 47 16 73 12 19 -4 22 -9 17 -29z m1080
28 c7 -12 -12 -24 -25 -16 -11 7 -4 25 10 25 5 0 11 -4 15 -9z m-61 -17 c22
-8 20 -21 -4 -27 -15 -4 -20 0 -20 14 0 21 1 22 24 13z m-6843 -132 c-7 -2
-18 1 -23 6 -8 8 -4 9 13 5 13 -4 18 -8 10 -11z m-687 -88 c6 -15 4 -15 -11
-3 -10 7 -20 15 -22 16 -2 2 3 3 11 3 9 0 19 -7 22 -16z m5370 -31 c16 -9 14
-11 -18 -15 -29 -3 -40 0 -47 15 -6 10 -8 26 -5 34 6 14 9 13 29 -4 12 -11 31
-25 41 -30z m2364 1 c7 -2 10 -8 7 -14 -4 -7 -13 -7 -26 0 -15 9 -21 7 -25 -5
-9 -23 -24 -18 -24 9 0 20 4 23 28 19 15 -3 33 -6 40 -9z m-5968 -13 c0 -4
-20 -16 -44 -25 -69 -26 -75 -40 -36 -81 18 -18 38 -31 45 -29 7 3 15 -2 18
-10 9 -24 39 -19 83 12 35 26 104 57 104 47 0 -2 -9 -20 -21 -39 -18 -30 -26
-36 -56 -36 -34 0 -89 -30 -106 -57 -4 -7 -13 -13 -20 -13 -16 0 -41 56 -31
71 4 8 3 9 -5 5 -6 -4 -23 1 -39 12 -15 11 -39 18 -53 17 -23 -3 -25 0 -21 21
2 13 -1 31 -8 39 -10 12 -7 16 16 25 15 6 34 20 41 30 11 16 26 20 74 20 32 0
59 -4 59 -9z m-301 -20 l24 -19 -31 -7 c-28 -6 -46 -19 -47 -35 0 -3 -5 -13
-11 -24 -10 -16 -14 -17 -35 -6 l-24 13 23 10 c12 6 22 13 22 17 0 10 -56 36
-100 46 -32 8 -28 10 40 15 41 3 84 6 95 7 11 1 31 -7 44 -17z m4021 0 c0 -10
-30 -24 -37 -17 -3 3 -2 9 2 15 8 13 35 15 35 2z m403 -15 c13 -12 28 -25 34
-27 6 -2 13 -15 17 -29 l7 -25 -23 28 c-13 15 -28 27 -34 27 -6 0 -16 11 -22
25 -14 31 -9 32 21 1z m495 -12 c54 19 75 6 43 -28 -14 -15 -21 -31 -18 -41 4
-9 -14 -48 -45 -97 -29 -44 -54 -76 -56 -70 -2 6 -19 14 -39 18 l-35 7 31 28
c35 31 39 60 16 106 -15 30 -14 32 17 67 30 34 33 35 40 17 7 -19 10 -20 46
-7z m-2443 -11 c-5 -10 -8 -21 -7 -24 0 -3 -30 -37 -69 -75 -61 -61 -69 -66
-69 -44 0 17 22 47 72 97 70 71 88 82 73 46z m998 -64 c5 -4 -5 -23 -24 -44
-33 -36 -34 -36 -40 -13 -3 13 -1 27 6 33 6 6 18 21 25 35 10 19 15 21 18 10
3 -8 9 -18 15 -21z m1108 -20 c-6 -24 -9 -28 -10 -12 -1 17 -6 20 -23 16 -20
-4 -19 -2 7 16 16 11 31 19 33 17 2 -2 -1 -19 -7 -37z m-2391 -1 c0 -55 -13
-61 -44 -21 -16 19 -23 34 -15 31 8 -3 20 1 27 9 22 21 32 15 32 -19z m370
-29 c0 -13 -80 -69 -100 -69 -9 0 -25 -9 -35 -20 -16 -18 -47 -20 -64 -3 -3 2
26 34 63 72 l68 69 34 -20 c19 -11 34 -24 34 -29z m-571 -26 l1 -33 -20 20
c-23 23 -25 33 -8 60 12 18 13 19 20 2 3 -9 7 -32 7 -49z m2689 13 c14 -38 14
-47 4 -64 -7 -10 -15 -10 -36 -2 -24 9 -26 13 -21 47 4 21 8 44 10 50 7 21 31
4 43 -31z m1690 22 c-2 -6 -10 -14 -16 -16 -7 -2 -10 2 -6 12 7 18 28 22 22 4z
m-64 -24 c12 -5 13 -10 3 -32 -6 -15 -12 -29 -13 -30 -1 -2 -11 -1 -22 2 -22
7 -23 43 -1 57 17 11 14 10 33 3z m-6254 -33 c0 -5 -11 -11 -25 -13 -24 -5
-32 2 -18 15 9 10 43 8 43 -2z m7166 -10 c-3 -5 -22 -12 -41 -15 -19 -4 -35
-11 -35 -16 0 -5 -7 -7 -16 -3 -21 8 -4 23 38 33 46 11 60 11 54 1z m-2478 -8
c18 -4 20 -8 10 -14 -23 -15 -58 -11 -52 6 7 17 9 17 42 8z m-2582 -40 c15
-20 19 -127 5 -119 -5 3 -12 27 -15 53 -4 27 -9 56 -12 66 -3 9 -2 17 2 17 4
0 13 -8 20 -17z m3975 0 c25 -29 2 -97 -34 -107 -41 -11 -50 49 -14 94 26 34
30 35 48 13z m972 -28 c-21 -28 -26 -29 -56 -13 -21 11 -21 12 13 24 55 20 63
18 43 -11z m-7083 0 c-7 -8 -18 -15 -24 -15 -6 0 -2 7 8 15 25 19 32 19 16 0z
m5440 11 c0 -3 -4 -8 -10 -11 -5 -3 -10 -1 -10 4 0 6 5 11 10 11 6 0 10 -2 10
-4z m-2039 -21 c0 -6 -10 -12 -23 -13 -19 -4 -20 -2 -9 12 15 17 33 18 32 1z
m3439 1 c0 -16 -27 -29 -42 -20 -6 4 -1 12 13 20 30 17 29 17 29 0z m-6818 -8
c-7 -7 -12 -20 -12 -30 0 -10 -4 -18 -10 -18 -5 0 -10 5 -10 10 0 16 24 50 34
50 6 0 5 -5 -2 -12z m308 -12 c0 -13 11 -39 24 -59 20 -30 22 -36 9 -41 -25
-10 -30 -7 -37 22 -3 15 -10 44 -15 65 -7 29 -6 37 5 37 8 0 14 -10 14 -24z
m7130 20 c0 -3 -4 -8 -10 -11 -5 -3 -10 -1 -10 4 0 6 5 11 10 11 6 0 10 -2 10
-4z m-7204 -31 c-17 -13 -33 -22 -38 -19 -17 11 -7 24 25 33 45 13 45 13 13
-14z m894 14 c0 -9 -57 -29 -81 -29 -22 0 -24 11 -8 27 12 12 89 14 89 2z
m5021 -16 c-8 -15 -10 -15 -11 -2 0 17 10 32 18 25 2 -3 -1 -13 -7 -23z m-636
7 c8 -13 -5 -13 -25 0 -13 8 -13 10 2 10 9 0 20 -4 23 -10z m479 -37 c20 -24
25 -63 7 -63 -9 0 -41 59 -41 76 0 20 8 17 34 -13z m1009 7 c5 -4 -10 -12 -32
-18 -40 -10 -41 -9 -41 15 0 22 3 24 33 18 17 -4 36 -11 40 -15z m642 -2 c-4
-13 -9 -31 -12 -41 -3 -14 -11 -17 -26 -13 -12 3 -29 6 -37 6 -15 0 57 69 73
70 5 0 5 -10 2 -22z m-2885 7 c0 -3 -9 -23 -20 -45 -14 -27 -25 -38 -35 -34
-12 5 -13 10 -4 20 6 8 8 25 5 39 -6 23 -3 25 24 25 16 0 30 -2 30 -5z m-4650
-30 c-12 -15 -30 -12 -30 6 0 5 10 9 21 9 18 0 19 -2 9 -15z m5639 -15 c24
-25 35 -29 58 -24 15 4 33 11 40 16 7 5 14 5 18 -2 3 -6 11 -7 17 -4 7 4 8 2
4 -4 -4 -6 -8 -26 -10 -44 -2 -18 -6 -40 -10 -49 -7 -15 36 -69 55 -69 5 0 -2
-16 -16 -35 -34 -51 -41 -93 -19 -110 17 -12 15 -17 -31 -77 -27 -34 -87 -110
-134 -167 -48 -58 -91 -112 -98 -120 -10 -14 -17 -12 -57 16 l-45 32 -16 -22
c-14 -21 -15 -19 -9 28 8 68 10 74 31 73 10 0 30 3 46 7 22 6 27 4 27 -11 0
-16 2 -15 23 4 13 12 28 22 35 22 6 0 23 5 37 12 28 13 33 43 11 74 -13 16
-12 21 1 36 11 12 12 21 5 34 -7 12 -6 29 2 53 7 20 12 45 11 56 -5 68 -3 65
-45 65 -49 0 -85 -16 -105 -47 -24 -36 -52 -30 -57 12 -4 32 -2 34 27 37 22 2
31 9 33 26 2 15 10 22 25 22 12 0 40 11 61 24 l39 23 -22 22 c-18 18 -46 26
-73 22 -4 0 -13 9 -19 20 -13 26 4 41 37 33 25 -6 67 12 59 26 -5 7 9 17 27
19 3 1 20 -13 37 -29z m-4479 7 c0 -8 -3 -17 -7 -20 -9 -9 -34 13 -27 24 8 14
34 11 34 -4z m5510 -29 c0 -5 -12 -8 -27 -8 -26 0 -26 0 -8 20 14 16 20 17 27
8 4 -7 8 -16 8 -20z m-2112 -33 c-6 -14 -15 -25 -20 -25 -9 0 -4 14 15 38 15
19 18 14 5 -13z m-445 -36 c30 -21 -33 -75 -107 -93 l-28 -7 21 34 c12 19 21
41 21 48 0 8 14 26 32 41 l33 27 10 -22 c5 -12 13 -25 18 -28z m1333 27 c17
-13 17 -14 1 -12 -19 2 -47 26 -31 26 6 0 19 -6 30 -14z m1524 -47 c0 -11 7
-22 15 -25 20 -8 19 -40 -1 -48 -26 -10 -34 -7 -34 12 0 9 -10 22 -22 27 -30
13 -37 61 -11 67 27 6 53 -10 53 -33z m206 -8 c-4 -49 -11 -71 -24 -71 -11 0
-92 72 -92 81 0 5 15 9 33 9 17 0 43 7 57 14 14 8 26 14 28 15 1 1 0 -21 -2
-48z m-7282 23 c4 -9 5 -19 2 -21 -6 -6 -46 20 -46 29 0 15 38 8 44 -8z m2277
-21 c-8 -15 -10 -15 -11 -2 0 17 10 32 18 25 2 -3 -1 -13 -7 -23z m-2723 3
c-6 -11 54 -36 86 -36 25 0 36 -6 46 -25 7 -14 17 -25 21 -25 12 0 49 42 49
56 0 31 51 24 80 -10 11 -14 8 -16 -21 -16 l-33 0 32 -33 c36 -37 112 -84 112
-69 0 5 -16 20 -35 33 -37 26 -44 39 -20 39 13 0 122 -88 124 -100 1 -3 -54
-12 -121 -19 -68 -7 -188 -23 -267 -36 -80 -13 -147 -23 -148 -21 -8 7 100 47
113 42 8 -3 14 -1 14 5 0 5 10 14 23 18 21 9 21 10 -10 21 -32 11 -103 92
-103 116 0 7 9 18 19 24 11 5 23 19 26 31 4 11 9 18 12 16 2 -3 3 -8 1 -11z
m5402 -3 c29 4 21 -18 -9 -24 -25 -5 -31 -3 -31 11 0 21 12 34 19 21 4 -5 13
-9 21 -8z m2477 -5 c-3 -8 -6 -5 -6 6 -1 11 2 17 5 13 3 -3 4 -12 1 -19z
m-7069 -19 c2 -13 -5 -16 -35 -14 -52 3 -53 3 -53 16 0 6 9 9 20 6 12 -3 18
-1 14 5 -4 6 6 8 22 6 17 -2 30 -10 32 -19z m5683 3 c-5 -10 -17 -24 -25 -32
-13 -10 -16 -10 -16 3 0 29 12 47 31 47 16 0 18 -4 10 -18z m-6994 -30 c18
-25 16 -32 -11 -32 -13 0 -38 -3 -55 -6 -29 -6 -31 -5 -31 23 0 16 3 33 7 37
12 12 76 -4 90 -22z m1043 -17 c25 -30 4 -24 -35 11 -37 33 -38 34 -9 20 17
-8 36 -22 44 -31z m5977 25 c2 -19 -14 -37 -23 -27 -5 5 13 47 19 47 2 0 3 -9
4 -20z m-2499 -25 c0 -14 -4 -28 -9 -31 -10 -6 -12 17 -3 40 9 22 12 20 12 -9z
m2848 -2 c-10 -10 -19 5 -10 18 6 11 8 11 12 0 2 -7 1 -15 -2 -18z m188 12
c-4 -8 -16 -15 -28 -15 -21 1 -21 1 -2 15 25 19 37 19 30 0z m784 1 c19 -10
21 -15 10 -23 -13 -11 -48 -17 -80 -15 -24 3 -23 23 2 29 11 3 20 9 20 14 0
13 21 11 48 -5z m-7063 -6 c22 -10 13 -13 -25 -10 -34 2 -51 20 -19 19 13 0
33 -4 44 -9z m6475 -35 c-7 -8 -16 -15 -21 -15 -5 0 -9 7 -9 15 0 9 9 15 21
15 18 0 19 -2 9 -15z m-2580 -41 c0 -8 -4 -14 -9 -14 -11 0 -22 26 -14 34 9 9
23 -3 23 -20z m-4842 2 c31 2 33 0 28 -25 -6 -23 -5 -24 7 -9 9 11 26 16 50
15 42 -2 45 -7 18 -24 -11 -7 -24 -28 -31 -48 -8 -25 -19 -37 -38 -41 -15 -3
-42 -10 -61 -14 -32 -9 -33 -8 -29 18 3 15 7 33 9 41 5 18 -48 50 -92 55 -49
5 -38 20 20 26 27 3 53 9 57 13 4 4 12 3 18 -1 6 -5 26 -8 44 -6z m1326 -53
c-8 -66 -8 -68 -24 -58 -7 5 -8 11 -1 19 7 8 6 21 -4 40 -22 42 -19 48 28 55
4 0 4 -25 1 -56z m1646 37 c13 -8 13 -10 -2 -10 -9 0 -20 5 -23 10 -8 13 5 13
25 0z m3703 -35 c44 -47 66 -55 121 -40 l29 8 -6 -48 c-4 -26 -7 -60 -7 -75 0
-23 -20 -46 -111 -126 -126 -113 -137 -120 -152 -105 -15 15 -68 14 -108 -3
-19 -7 -70 -17 -113 -20 -65 -6 -78 -5 -69 6 5 7 39 49 74 93 36 44 93 117
128 163 l62 82 30 -17 c16 -9 29 -21 29 -25 0 -4 7 -8 16 -8 33 0 59 121 32
148 -7 7 -8 12 -4 12 4 0 26 -20 49 -45z m-5238 26 c3 -5 1 -12 -5 -16 -18
-11 -10 -25 14 -25 14 0 23 -5 22 -12 -10 -49 -21 -71 -40 -78 -20 -7 -20 -8
7 -20 25 -12 37 -30 19 -30 -5 0 -17 -7 -28 -16 -18 -15 -18 -15 3 -5 30 15
38 14 24 -3 -9 -11 -9 -15 0 -18 7 -2 9 -12 4 -27 -4 -14 -12 -20 -22 -17 -8
3 -26 6 -39 6 -27 0 -34 27 -9 36 13 5 13 9 3 21 -12 15 -13 156 -2 196 6 18
39 24 49 8z m466 -18 c12 20 54 23 66 4 14 -23 64 -39 79 -26 18 15 18 -2 1
-25 -12 -16 -17 -17 -37 -6 -13 7 -55 14 -92 15 -38 1 -70 4 -73 6 -2 3 -2 15
2 27 5 22 6 22 25 5 19 -17 20 -17 29 0z m5278 -3 c9 0 46 -22 82 -49 59 -45
72 -50 124 -53 36 -2 60 -8 63 -16 7 -23 -395 -202 -455 -202 -7 0 -13 5 -13
10 0 6 6 10 13 10 7 0 32 16 56 36 32 28 40 41 36 58 -5 21 -5 21 11 -1 20
-27 44 -29 91 -6 61 29 78 122 27 148 -56 29 -113 88 -68 71 9 -3 23 -6 33 -6z
m1377 -30 c8 0 14 -3 14 -7 0 -5 -26 -8 -58 -9 -48 0 -58 3 -59 17 -1 11 4 15
16 12 10 -2 23 3 31 12 12 14 14 14 27 -5 8 -11 21 -20 29 -20z m-6739 8 c-3
-8 -6 -5 -6 6 -1 11 2 17 5 13 3 -3 4 -12 1 -19z m5203 13 c0 -12 -46 -41 -54
-34 -12 12 -6 32 12 36 29 8 42 7 42 -2z m-137 -63 c-8 -77 -23 -83 -23 -10 0
48 3 62 15 62 11 0 13 -11 8 -52z m159 30 c-6 -27 -20 -38 -46 -38 -17 0 -16
4 9 30 34 36 45 38 37 8z m53 2 c18 -19 17 -20 -2 -20 -12 0 -23 8 -26 20 -3
11 -2 20 2 20 5 0 16 -9 26 -20z m-7350 -10 c-3 -5 -10 -10 -16 -10 -5 0 -9 5
-9 10 0 6 7 10 16 10 8 0 12 -4 9 -10z m1084 -146 c83 -75 150 -139 147 -141
-2 -3 -45 -15 -95 -27 -72 -18 -95 -20 -109 -11 -9 6 -34 11 -55 10 -58 -3
-66 9 -55 80 23 139 10 187 -45 166 -17 -7 -28 -7 -32 -1 -15 24 -113 2 -122
-26 -2 -6 8 -25 22 -42 14 -16 25 -42 25 -57 0 -26 0 -26 -29 -9 -35 21 -61
71 -54 107 3 15 0 34 -7 42 -7 9 -11 17 -9 19 2 2 60 8 129 13 69 6 128 11
131 11 3 1 74 -59 158 -134z m271 71 c0 -18 11 -53 25 -79 14 -26 25 -49 25
-52 0 -2 -24 14 -54 36 l-54 41 15 30 c9 19 12 40 8 62 l-7 32 21 -19 c13 -12
21 -31 21 -51z m4694 46 c3 -5 -1 -11 -9 -15 -9 -3 -15 0 -15 9 0 16 16 20 24
6z m-6040 -28 c-10 -8 -18 -20 -16 -28 4 -19 -8 -24 -71 -29 -45 -4 -60 -1
-78 15 -12 10 -28 19 -34 19 -20 0 -27 30 -9 37 8 3 41 3 72 0 31 -3 75 -3 97
2 49 9 65 3 39 -16z m5301 17 c3 -5 1 -10 -4 -10 -6 0 -11 5 -11 10 0 6 2 10
4 10 3 0 8 -4 11 -10z m-4872 -55 c-39 -39 -37 -63 5 -41 15 8 35 23 45 34 32
36 88 6 61 -32 -8 -11 -14 -34 -14 -51 -1 -25 -2 -27 -11 -12 -21 36 -59 8
-59 -45 0 -21 -4 -23 -39 -20 -29 3 -41 10 -50 28 -10 23 -41 31 -91 24 -23
-3 -60 -41 -60 -63 0 -14 -4 -17 -17 -12 -41 16 -76 24 -86 18 -5 -3 -13 0
-17 6 -4 7 -25 13 -47 14 l-40 2 18 24 c11 13 19 34 19 48 0 21 2 22 21 12 38
-20 149 21 149 56 0 8 37 18 103 27 155 23 151 24 110 -17z m6814 8 l31 -28
-49 1 c-27 1 -53 2 -59 3 -16 2 -11 21 5 21 9 0 18 7 21 15 8 21 16 19 51 -12z
m-2335 -38 c-2 -14 -9 -25 -14 -25 -6 0 -7 7 -4 16 3 9 6 20 6 25 0 5 4 9 9 9
4 0 6 -11 3 -25z m2831 13 c-4 -7 -8 -31 -8 -52 0 -35 -3 -40 -27 -47 -25 -6
-28 -5 -28 17 0 30 24 80 42 87 23 9 29 7 21 -5z m797 2 c0 -5 -4 -10 -10 -10
-5 0 -10 5 -10 10 0 6 5 10 10 10 6 0 10 -4 10 -10z m-667 -14 c23 -18 13 -43
-21 -51 -15 -3 -35 -8 -45 -11 -17 -5 -17 -3 3 35 22 43 34 49 63 27z m307 -6
c0 -5 -2 -10 -4 -10 -3 0 -8 5 -11 10 -3 6 -1 10 4 10 6 0 11 -4 11 -10z
m-5947 -6 c9 -9 -11 -44 -25 -44 -9 0 -9 3 -1 11 6 6 9 18 6 25 -5 14 8 19 20
8z m1882 -33 c-2 -5 -16 -11 -30 -13 -22 -5 -25 -2 -25 24 l0 29 30 -16 c17
-9 28 -20 25 -24z m485 15 c0 -32 -20 -86 -32 -86 -6 0 -7 7 -2 18 4 9 9 33
10 52 3 43 2 40 14 40 6 0 10 -11 10 -24z m-4860 4 c0 -5 -7 -7 -15 -4 -8 4
-15 8 -15 10 0 2 7 4 15 4 8 0 15 -4 15 -10z m3903 -77 c-6 -15 -49 -17 -58
-3 -3 6 -15 10 -26 10 -26 0 -24 16 7 47 l27 27 27 -34 c15 -19 26 -40 23 -47z
m4877 49 c-17 -6 -42 7 -35 18 4 6 13 5 26 -3 10 -6 15 -13 9 -15z m-263 -6
c12 -13 27 -28 35 -32 7 -5 21 -21 31 -36 15 -24 15 -30 2 -61 -8 -19 -12 -37
-9 -40 8 -8 -5 -47 -16 -47 -4 0 -13 14 -19 30 -11 32 -24 36 -65 20 -18 -6
-34 -5 -55 3 -26 11 -28 14 -15 32 16 22 19 81 4 90 -14 9 -12 25 3 25 8 0 22
9 32 20 24 26 47 25 72 -4z m-1216 -128 c-8 -22 -19 -27 -73 -37 -107 -19
-119 -20 -116 -12 2 4 46 46 98 93 l95 86 3 -52 c2 -29 -1 -64 -7 -78z m-2371
96 c0 -7 8 -17 18 -23 16 -9 16 -11 -3 -25 -11 -8 -25 -16 -32 -16 -6 0 -19
-3 -29 -7 -13 -5 -15 -3 -9 8 5 8 10 21 10 29 1 8 2 25 3 37 2 16 7 20 22 16
11 -3 20 -11 20 -19z m95 -3 c-4 -14 -15 -21 -31 -21 l-25 0 28 24 c32 27 38
27 28 -3z m2786 -3 c-7 -18 -19 -27 -43 -31 -106 -18 -105 -19 -28 21 41 21
76 37 78 36 1 -1 -2 -12 -7 -26z m-5166 11 c8 -12 -32 -59 -49 -59 -6 0 -17 4
-25 9 -11 7 -10 13 5 35 19 26 58 35 69 15z m5518 -42 c15 -28 23 -53 18 -55
-6 -2 -21 -12 -35 -23 -29 -23 -34 -47 -11 -55 11 -5 12 -11 4 -25 -10 -20
-11 -20 -43 1 -40 24 -62 26 -70 5 -3 -8 -13 -15 -22 -15 -16 0 -16 2 3 48 7
17 -12 15 -27 -3 -11 -13 -16 -10 -32 26 -10 23 -25 47 -33 53 -27 20 0 37
106 66 57 15 106 29 109 29 3 0 17 -23 33 -52z m-1593 34 c0 -6 -4 -13 -10
-16 -5 -3 -10 1 -10 9 0 9 5 16 10 16 6 0 10 -4 10 -9z m-2625 -21 c10 -11 15
-23 12 -27 -4 -3 -7 -1 -7 5 0 7 -9 12 -20 12 -11 0 -20 7 -20 15 0 21 13 19
35 -5z m2006 5 c-1 -15 -24 -12 -29 3 -3 9 2 13 12 10 10 -1 17 -7 17 -13z
m-6621 -5 c-20 -13 -33 -13 -25 0 3 6 14 10 23 10 15 0 15 -2 2 -10z m1502
-72 c8 -28 17 -38 32 -38 19 -1 19 -2 -5 -15 -14 -7 -34 -30 -44 -49 -22 -40
-35 -46 -35 -17 0 12 -9 21 -24 25 -52 13 -38 70 15 59 31 -6 41 10 13 21 -12
5 -14 9 -5 20 6 7 12 25 13 40 2 25 4 26 16 9 7 -10 18 -35 24 -55z m1621 44
c-6 -24 -23 -30 -23 -9 0 13 21 39 26 34 2 -2 1 -13 -3 -25z m3712 -2 c3 -5 1
-10 -4 -10 -6 0 -11 5 -11 10 0 6 2 10 4 10 3 0 8 -4 11 -10z m402 -12 c-3 -8
-6 -5 -6 6 -1 11 2 17 5 13 3 -3 4 -12 1 -19z m818 12 c3 -5 21 -10 38 -11
l32 -1 -30 -13 c-47 -22 -65 -19 -65 10 0 25 14 33 25 15z m1362 -7 c4 -11
-56 -53 -75 -53 -5 0 -12 9 -15 19 -4 16 2 21 24 26 16 4 31 11 35 16 7 12 26
7 31 -8z m-8643 -13 c14 -5 26 -17 26 -26 0 -14 2 -15 17 -3 14 12 16 12 11
-1 -2 -8 -12 -15 -22 -15 -9 0 -25 -15 -36 -33 -21 -34 -47 -40 -96 -22 -18 7
-30 7 -40 -1 -11 -9 -11 -5 -4 23 6 18 10 34 10 35 0 2 8 3 18 3 11 0 30 11
43 24 28 27 38 30 73 16z m2466 -47 c0 -10 -7 -12 -22 -8 -33 10 -41 20 -33
45 l7 22 24 -23 c13 -12 24 -29 24 -36z m5274 38 c16 -18 16 -18 -28 -14 -40
5 -48 2 -76 -25 -16 -17 -30 -40 -30 -51 0 -12 1 -21 3 -21 2 0 26 11 54 25
78 37 103 41 103 17 0 -11 3 -33 6 -49 6 -29 4 -31 -40 -42 -25 -6 -64 -8 -86
-5 -35 6 -42 11 -47 36 -6 28 -34 53 -47 41 -3 -4 -40 -6 -82 -5 -67 2 -81 -1
-108 -21 -31 -24 -31 -24 -161 -12 -71 6 -123 14 -115 17 27 11 110 28 158 34
56 6 445 83 451 90 10 9 29 3 45 -15z m-5184 -22 c13 -24 13 -29 -5 -29 -12 0
-35 36 -35 55 0 11 32 -9 40 -26z m70 14 c0 -5 -5 -15 -10 -23 -7 -11 -12 -12
-21 -3 -6 6 -8 16 -5 22 8 12 36 15 36 4z m2130 -4 c0 -4 -7 -12 -15 -19 -8
-7 -15 -10 -15 -7 0 3 -2 12 -5 19 -4 9 2 14 15 14 11 0 20 -3 20 -7z m-4169
-9 c5 0 9 -4 9 -10 0 -14 -13 -12 -36 6 -17 14 -17 15 -1 10 10 -3 23 -6 28
-6z m4721 -20 c6 -16 4 -30 -7 -46 -15 -23 -15 -24 13 -24 22 0 30 -6 39 -31
9 -22 9 -38 2 -50 -12 -23 -24 -23 -79 -4 -23 8 -48 15 -54 15 -15 -1 55 -60
71 -60 21 0 15 -18 -24 -75 -43 -61 -67 -74 -188 -100 -44 -10 -100 -26 -124
-37 -24 -10 -46 -16 -48 -14 -3 2 13 28 34 58 22 29 72 102 112 161 40 60 78
106 85 104 6 -3 18 -8 27 -12 21 -8 51 53 53 106 1 36 1 37 40 35 31 -2 41 -7
48 -26z m-4252 13 c0 -9 -55 -60 -70 -65 -14 -4 -60 41 -60 60 0 6 27 10 65
10 36 0 65 -2 65 -5z m3968 -23 c7 0 12 -2 12 -5 0 -15 -40 -86 -67 -119 -46
-55 -43 -73 7 -40 21 14 43 24 49 22 15 -5 -217 -307 -253 -329 -17 -10 -38
-19 -47 -19 -21 0 -33 28 -19 45 6 7 12 33 14 58 3 35 0 49 -14 62 -10 9 -16
24 -13 35 3 10 -1 29 -8 41 -7 13 -12 28 -11 33 2 5 -6 15 -18 23 -11 8 -20
21 -20 29 0 19 68 84 87 84 8 0 17 8 20 19 2 10 16 24 31 30 23 11 28 10 44
-11 10 -13 23 -42 29 -65 9 -35 13 -40 25 -29 7 8 16 25 20 40 8 35 42 35 46
0 l3 -25 24 22 c21 20 23 28 18 77 -5 51 -5 53 12 38 10 -9 23 -16 29 -16z
m-5496 -55 c-47 -39 -58 -38 -54 5 6 52 16 60 56 41 l34 -16 -36 -30z m5908
40 c0 -7 -6 -18 -14 -24 -12 -10 -17 -8 -25 7 -7 13 -7 22 1 30 13 13 38 5 38
-13z m890 2 c0 -8 -11 -19 -25 -25 -31 -14 -32 -6 -2 19 27 22 27 22 27 6z
m-4480 -4 c0 -5 23 -24 51 -43 35 -24 47 -36 35 -38 -9 -2 -13 -8 -10 -14 10
-15 -51 22 -81 49 -28 26 -33 53 -10 53 8 0 15 -3 15 -7z m604 -26 c26 -19 16
-49 -17 -58 -23 -6 -28 -5 -23 7 3 9 6 27 6 40 0 27 8 30 34 11z m5754 -26
c18 -22 42 -43 53 -46 25 -8 24 -21 -1 -35 -18 -9 -25 -6 -49 19 -40 43 -87
38 -131 -13 -13 -15 -18 -16 -27 -5 -18 23 -26 59 -12 59 7 0 26 11 43 23 62
48 83 47 124 -2z m-8873 19 c3 -6 3 -20 0 -31 -6 -17 -9 -19 -16 -8 -12 19
-11 49 0 49 6 0 13 -5 16 -10z m4915 -20 c9 -16 15 -18 37 -9 20 7 28 6 34 -3
6 -10 -6 -14 -49 -19 -31 -3 -65 -9 -74 -13 -13 -6 -16 -3 -11 16 5 22 29 48
45 48 4 0 12 -9 18 -20z m1597 -3 c-4 -12 -47 -20 -47 -9 0 4 5 13 11 19 13
13 41 5 36 -10z m943 -23 c0 -9 -7 -14 -17 -12 -25 5 -28 28 -4 28 12 0 21 -6
21 -16z m-3002 -28 c21 -36 48 -40 73 -10 9 11 17 10 47 -6 45 -25 68 -25 81
-2 14 23 13 11 -4 -88 -8 -47 -15 -86 -15 -87 0 -2 -17 -3 -37 -3 -49 0 -75
-15 -44 -25 27 -8 27 -14 -5 -48 -17 -18 -26 -40 -27 -66 -1 -34 5 -45 41 -80
31 -31 41 -47 38 -64 -3 -12 -10 -78 -16 -147 -18 -204 -33 -259 -108 -390
-36 -63 -89 -162 -117 -220 -28 -58 -65 -134 -82 -170 l-32 -65 -1 425 c-1
234 -3 436 -5 450 -1 14 -4 70 -6 125 -3 100 -2 100 28 130 25 26 30 38 27 70
-2 28 -11 47 -29 62 -20 18 -24 28 -19 50 7 28 119 163 135 163 5 0 15 -12 23
-27 18 -34 21 -25 4 12 -10 22 -9 28 3 36 22 14 26 12 47 -25z m3451 24 c28 0
31 -2 22 -14 -14 -17 17 -29 126 -46 56 -9 74 -16 78 -31 8 -23 24 -24 69 -5
31 13 37 12 67 -7 19 -12 37 -21 41 -22 14 -1 20 -15 6 -15 -9 0 -51 -12 -94
-26 -60 -19 -88 -35 -116 -64 -34 -35 -41 -38 -86 -36 -26 1 -53 6 -60 9 -6 5
-20 -5 -32 -22 -15 -19 -28 -27 -41 -24 -11 3 -21 -1 -25 -11 -8 -22 -20 -20
-59 10 -25 19 -42 24 -64 21 -30 -5 -42 5 -21 18 14 8 13 68 -2 100 -9 20 -18
25 -46 25 -30 0 -34 3 -29 21 4 15 0 23 -14 26 -10 3 -19 14 -19 24 0 10 -4
20 -10 24 -12 8 -1 35 15 35 6 0 26 -7 44 -16 40 -20 65 -12 58 18 -6 20 -4
21 76 14 45 -3 97 -6 116 -6z m628 -26 c-9 -9 -28 6 -21 18 4 6 10 6 17 -1 6
-6 8 -13 4 -17z m-4588 -66 c-17 -45 -32 -84 -34 -86 -2 -2 -7 16 -10 41 -6
38 -3 50 22 85 47 68 56 51 22 -40z m1194 47 c12 3 30 -1 40 -9 17 -13 17 -15
-7 -39 -27 -27 -26 -57 1 -57 9 0 13 -6 9 -15 -3 -9 -8 -48 -12 -87 -4 -56
-10 -75 -27 -88 l-21 -18 29 -38 c32 -42 39 -69 21 -82 -6 -5 -38 -20 -71 -33
-72 -28 -279 -150 -317 -187 -15 -14 -30 -23 -33 -21 -2 3 -1 50 4 105 8 92
13 105 56 183 62 111 76 132 85 126 5 -3 20 -1 35 5 33 12 54 61 49 115 -2 32
3 50 26 84 31 47 102 90 108 64 2 -8 12 -11 25 -8z m-4973 -6 c0 -5 -7 -9 -15
-9 -15 0 -20 12 -9 23 8 8 24 -1 24 -14z m6350 11 c0 -5 -4 -10 -10 -10 -5 0
-10 5 -10 10 0 6 5 10 10 10 6 0 10 -4 10 -10z m-5945 -10 c3 -6 -1 -13 -10
-16 -19 -8 -30 0 -20 15 8 14 22 14 30 1z m-79 -8 c-3 -5 -21 -9 -41 -10 -21
-1 -33 3 -30 8 3 6 22 10 41 10 19 0 33 -4 30 -8z m2637 -11 c-10 -38 71 -70
113 -45 19 11 20 10 16 -18 -3 -20 1 -33 14 -43 16 -11 17 -14 4 -19 -37 -13
-49 -7 -107 51 -62 61 -70 73 -56 86 13 13 21 7 16 -12z m3467 -45 c0 -5 -10
-1 -22 10 -13 10 -25 20 -27 21 -1 1 0 7 4 14 6 8 13 5 26 -12 10 -13 19 -28
19 -33z m-3657 2 c9 -5 17 -15 17 -23 0 -7 6 -15 13 -18 7 -2 8 -8 3 -13 -5
-5 -11 -4 -13 3 -3 7 -16 10 -37 6 -30 -5 -33 -2 -43 31 -11 36 -11 36 15 30
15 -4 35 -11 45 -16z m1957 8 c0 -16 -18 -31 -27 -22 -8 8 5 36 17 36 5 0 10
-6 10 -14z m3851 -32 c10 -12 2 -44 -10 -44 -3 0 -12 9 -19 20 -9 15 -9 25 1
47 10 23 12 24 16 7 2 -10 7 -24 12 -30z m-5941 15 c0 -5 -12 -9 -27 -9 -27 1
-27 1 -9 15 19 14 36 12 36 -6z m3654 12 c8 -12 -23 -36 -63 -50 -42 -14 -71
-14 -71 -1 0 6 16 10 36 10 25 0 42 7 57 25 24 26 33 30 41 16z m62 -28 c-10
-10 -19 5 -10 18 6 11 8 11 12 0 2 -7 1 -15 -2 -18z m684 7 c0 -5 -2 -10 -4
-10 -3 0 -8 5 -11 10 -3 6 -1 10 4 10 6 0 11 -4 11 -10z m-1167 -15 c0 -6 -7
-11 -16 -13 -12 -3 -15 1 -11 13 7 17 25 17 27 0z m904 0 c9 -24 -4 -30 -34
-15 -26 12 -27 13 -8 21 29 11 35 11 42 -6z m323 -47 c0 -15 -23 -8 -36 10
-21 27 -16 34 11 15 13 -10 25 -21 25 -25z m-1255 12 c-3 -5 -11 -10 -16 -10
-6 0 -7 5 -4 10 3 6 11 10 16 10 6 0 7 -4 4 -10z m-2521 -25 c14 17 17 18 26
5 22 -33 12 -45 -35 -42 -43 4 -45 6 -45 34 l0 30 19 -23 c20 -24 20 -24 35
-4z m-2864 0 c0 -1 -7 -8 -15 -15 -13 -10 -15 -9 -15 8 0 15 5 20 15 16 8 -4
15 -7 15 -9z m2406 -22 c-7 -7 -26 7 -26 19 0 6 6 6 15 -2 9 -7 13 -15 11 -17z
m334 -10 c0 -16 -4 -35 -9 -42 -6 -9 -6 -22 0 -33 17 -31 -3 -20 -54 30 l-48
47 43 12 c64 17 68 16 68 -14z m-2886 -39 c24 -9 21 -54 -4 -54 -24 0 -25 -8
-5 -30 14 -16 12 -18 -32 -24 -42 -5 -50 -4 -65 16 -24 31 -23 35 17 53 19 9
39 23 46 31 13 16 20 17 43 8z m2742 -160 c19 -23 59 -87 90 -143 50 -93 54
-106 45 -133 -6 -17 -11 -43 -11 -59 0 -64 -11 -59 -72 34 -34 50 -82 117
-108 147 -26 30 -60 75 -75 100 -15 25 -42 63 -60 85 -43 54 -73 101 -58 92
15 -9 93 21 93 37 1 11 84 -75 156 -160z m579 -13 c26 -166 33 -355 15 -366
-6 -3 -10 4 -10 18 0 27 -64 354 -80 407 -9 30 -7 39 16 73 14 21 27 37 30 35
2 -3 15 -78 29 -167z m-2549 138 c6 -11 -3 -11 -46 -3 -18 4 -27 10 -20 14 14
8 58 1 66 -11z m6399 -9 c10 -11 15 -20 11 -20 -14 0 -46 21 -46 30 0 16 16
11 35 -10z m-4168 -69 c-28 -62 -35 -71 -45 -58 -9 11 -10 29 -5 62 7 43 12
49 43 59 19 7 36 11 38 11 1 -1 -13 -35 -31 -74z m-2467 59 c0 -5 -4 -10 -10
-10 -5 0 -10 5 -10 10 0 6 5 10 10 10 6 0 10 -4 10 -10z m4930 -24 c0 -7 -11
-30 -25 -50 -14 -20 -25 -45 -25 -55 0 -11 -13 -50 -29 -87 -16 -38 -36 -87
-45 -108 -15 -37 -17 -38 -34 -22 -25 21 -46 21 -38 -1 5 -13 -6 -29 -41 -59
l-48 -42 -115 58 c-63 32 -146 76 -183 98 l-69 39 44 24 c23 14 75 37 113 53
39 16 110 49 158 73 79 39 157 62 297 86 14 2 28 5 33 6 4 0 7 -5 7 -13z m252
-8 c24 -12 45 -23 47 -24 2 -2 -6 -16 -18 -32 -24 -34 -26 -49 -9 -54 12 -4
-117 -48 -140 -48 -11 0 59 180 70 180 4 0 27 -10 50 -22z m1638 -88 c0 -15
-7 -20 -30 -20 -38 0 -69 -33 -76 -82 -5 -29 -11 -38 -26 -38 -17 0 -19 4 -14
28 4 15 8 36 9 47 1 11 9 24 17 28 125 66 120 65 120 37z m-4230 -202 c0 -49
-1 -51 -15 -31 -8 12 -13 28 -10 37 3 9 7 23 10 31 9 29 15 14 15 -37z m2480
47 c0 -8 -52 -26 -58 -20 -3 2 6 9 19 14 28 11 39 13 39 6z m4447 -48 c5 -39
-8 -55 -27 -32 -10 12 -10 21 0 45 15 36 20 33 27 -13z m-5200 -21 c59 -30
151 -74 203 -98 67 -32 99 -52 109 -71 10 -19 18 -24 25 -17 12 12 46 13 46 2
0 -4 -13 -26 -29 -48 -16 -22 -81 -112 -143 -201 -95 -135 -127 -173 -203
-236 -49 -42 -125 -115 -169 -162 -43 -47 -135 -132 -205 -187 -258 -208 -333
-274 -385 -343 -91 -122 -182 -258 -221 -330 -65 -119 -60 -120 -78 13 l-16
119 35 149 c19 82 41 180 49 217 9 46 44 129 104 250 89 179 201 447 226 538
27 99 161 245 314 342 113 71 195 115 218 116 6 1 60 -23 120 -53z m2243 30
c0 -3 -4 -8 -10 -11 -5 -3 -10 -1 -10 4 0 6 5 11 10 11 6 0 10 -2 10 -4z m265
-16 c-3 -5 -11 -10 -16 -10 -6 0 -7 5 -4 10 3 6 11 10 16 10 6 0 7 -4 4 -10z
m-2057 -49 c19 -12 -24 -113 -46 -109 -19 4 -19 1 4 66 20 55 21 57 42 43z
m247 -35 l22 -24 -21 -6 c-11 -3 -31 -6 -43 -6 -20 0 -21 3 -12 30 13 36 25
38 54 6z m105 -51 c15 -18 0 -77 -22 -82 -10 -3 -18 -10 -18 -17 0 -6 -15 -20
-33 -31 -61 -37 -69 -38 -115 -13 -23 12 -41 25 -39 28 2 3 14 28 27 57 20 43
29 53 59 61 49 14 129 11 141 -3z m354 -11 c40 -15 5 -27 -42 -15 -2 1 0 6 3
11 7 12 17 12 39 4z m96 -24 c0 -5 -7 -7 -15 -4 -8 4 -12 10 -9 15 6 11 24 2
24 -11z m-78 -41 c29 1 56 7 59 13 3 5 9 -1 12 -13 8 -31 3 -34 -33 -19 -26
11 -36 10 -57 -1 -23 -12 -27 -11 -44 10 -10 13 -19 28 -19 35 0 6 7 2 15 -8
12 -16 25 -19 67 -17z m492 13 c3 -5 3 -17 0 -28 -4 -16 -14 -19 -68 -19 -49
0 -69 -5 -85 -19 -11 -10 -18 -23 -15 -27 3 -5 -20 -9 -50 -9 -30 0 -58 -4
-61 -10 -10 -16 -85 -12 -85 4 0 8 -3 21 -6 29 -7 20 49 40 65 24 12 -12 111
-17 111 -7 0 13 49 33 87 36 23 1 53 10 65 18 25 18 35 20 42 8z m546 -47 c0
-9 -6 -12 -15 -9 -8 4 -15 10 -15 15 0 5 7 9 15 9 8 0 15 -7 15 -15z m-158
-21 c-5 -25 -8 -28 -27 -20 -13 5 -14 10 -5 26 14 25 36 21 32 -6z m476 4 c19
-19 14 -28 -13 -28 -18 0 -25 5 -25 20 0 22 20 26 38 8z m-309 -14 c17 -4 28
-10 25 -15 -8 -14 -50 -10 -64 6 -14 17 -8 18 39 9z m-74 -19 c0 -5 -15 -11
-32 -13 -29 -3 -42 6 -28 19 9 9 60 4 60 -6z m-1530 -25 c28 -16 64 -36 82
-45 22 -10 31 -20 26 -31 -4 -10 2 -17 16 -21 16 -4 20 -10 15 -27 -8 -27
-155 -172 -219 -216 -49 -33 -280 -218 -383 -306 -79 -69 -217 -238 -279 -344
-30 -52 -95 -156 -144 -230 -48 -74 -110 -180 -136 -235 -41 -86 -69 -124
-182 -255 -74 -85 -189 -212 -257 -282 -130 -135 -133 -136 -134 -55 0 38 89
258 152 377 28 52 63 123 77 157 15 34 65 128 111 209 l85 146 222 205 c123
112 261 248 307 301 46 53 123 131 171 172 88 76 167 173 325 403 41 59 79
107 84 107 6 0 34 -14 61 -30z m-2337 -178 c71 -161 121 -306 109 -318 -4 -4
-132 215 -182 311 -28 54 -31 67 -27 128 2 37 7 67 10 67 4 0 44 -85 90 -188z
m6686 130 c-7 -16 -22 -36 -32 -45 -18 -16 -20 -16 -45 7 -30 28 -34 38 -12
30 18 -7 75 14 75 27 0 5 6 9 14 9 13 0 13 -4 0 -28z m-3974 -7 c16 0 26 -6
28 -17 5 -27 -64 -25 -71 1 -5 21 3 36 12 24 3 -5 17 -8 31 -8z m1469 -85 c38
0 43 -27 6 -36 -16 -4 -34 1 -55 16 -32 23 -32 47 0 30 10 -5 32 -10 49 -10z
m88 -54 c1 -43 -15 -50 -56 -24 -37 23 -31 36 21 48 18 4 33 8 34 9 0 1 0 -14
1 -33z m-1327 -41 c0 -11 -12 -15 -45 -15 -53 0 -57 6 -12 19 47 13 57 13 57
-4z m998 -28 c-21 -6 -38 -14 -38 -18 0 -5 18 -14 40 -20 46 -14 48 -19 19
-37 -22 -14 -27 -12 -81 37 -37 33 -35 39 10 44 72 7 90 5 50 -6z m-321 -23
c17 -23 21 -24 46 -13 24 11 30 10 47 -9 32 -34 79 -55 112 -48 27 5 68 -10
68 -26 0 -5 -11 -8 -24 -8 -14 0 -28 -4 -31 -10 -6 -10 10 -13 58 -10 15 1 27
-3 27 -9 0 -6 9 -19 21 -30 20 -18 20 -19 2 -33 -10 -7 -23 -22 -29 -33 -6
-11 -19 -22 -28 -23 -10 -2 -34 -15 -53 -28 -38 -25 -59 -30 -65 -15 -1 5 -57
71 -123 146 -66 75 -121 140 -123 144 -2 7 43 28 65 30 6 1 20 -11 30 -25z
m3010 1 c-2 -14 -13 -32 -25 -40 -19 -14 -22 -14 -33 7 -7 12 -8 23 -3 25 5 2
20 10 34 17 14 8 26 14 28 15 1 1 1 -10 -1 -24z m13 -66 c0 -6 -4 -7 -10 -4
-5 3 -10 11 -10 16 0 6 5 7 10 4 6 -3 10 -11 10 -16z m-1760 -71 c0 -9 8 -22
18 -27 14 -9 12 -10 -14 -11 -24 0 -33 5 -37 22 -8 29 12 66 24 47 5 -8 9 -22
9 -31z m-2033 6 c5 -12 14 -15 44 -10 20 3 46 3 56 -1 14 -6 9 -9 -22 -16 -79
-16 -143 -19 -161 -8 -16 8 -16 10 -3 11 9 0 24 9 34 20 22 24 43 26 52 4z
m-130 -20 c-3 -3 -12 -4 -19 -1 -8 3 -5 6 6 6 11 1 17 -2 13 -5z m1666 -73
c-5 -24 -20 -41 -33 -41 -6 1 -70 105 -70 114 0 3 25 -6 55 -21 49 -24 54 -29
48 -52z m-693 -73 c0 -19 -45 11 -81 53 -62 74 -38 86 27 13 30 -32 54 -62 54
-66z m690 1 c18 -33 6 -42 -13 -9 -10 16 -14 30 -8 30 6 0 15 -9 21 -21z
m-550 -34 c-12 -15 -30 -12 -30 5 0 8 31 19 39 13 2 -1 -2 -9 -9 -18z m450 0
c21 -25 1 -31 -22 -7 -18 18 -19 22 -6 22 8 0 21 -7 28 -15z m-72 -40 c-18
-13 -35 -21 -37 -19 -9 9 42 52 55 47 11 -4 6 -12 -18 -28z m-138 -10 c0 -8
-6 -15 -13 -15 -7 0 -29 -9 -50 -20 l-37 -20 22 35 c17 26 30 35 51 35 17 0
27 -5 27 -15z m-4038 -205 c10 -58 23 -166 28 -240 6 -74 12 -157 15 -185 11
-122 -76 271 -95 425 -25 211 -25 216 7 155 15 -30 34 -93 45 -155z m3941 63
c-6 -15 -13 -16 -31 -5 -7 5 -10 16 -6 25 5 13 9 14 24 5 10 -6 16 -18 13 -25z
m-78 -29 c14 -15 25 -31 25 -36 0 -11 -68 43 -69 55 -2 15 21 6 44 -19z m325
8 c0 -12 -18 -28 -50 -44 -27 -14 -50 -24 -50 -22 0 16 36 54 51 54 10 0 24 7
31 15 17 19 18 18 18 -3z m2813 -8 c4 -20 1 -24 -12 -18 -9 3 -26 9 -38 11
-31 7 -29 21 5 26 15 2 30 5 33 6 4 0 9 -11 12 -25z m-1834 -23 l24 -18 -28
-7 c-31 -8 -30 -9 -39 22 -9 28 9 29 43 3z m99 -26 c-31 -28 -38 -31 -38 -12
0 7 10 17 23 23 38 19 43 15 15 -11z m2173 -32 c-4 -15 -13 -29 -20 -31 -9 -3
-11 0 -6 7 4 7 7 29 7 49 0 32 1 34 13 19 8 -11 10 -28 6 -44z m-1921 1 c49
-25 52 -29 30 -32 -14 -2 -30 -8 -36 -13 -5 -4 -31 -7 -57 -5 -27 1 -59 -3
-73 -11 -15 -7 -29 -11 -33 -9 -4 3 -23 1 -43 -3 l-36 -8 27 37 c14 21 29 36
32 34 8 -5 67 24 74 36 10 15 57 5 115 -26z m1490 -80 c24 -5 24 -6 6 -19 -16
-12 -23 -12 -47 0 -56 30 -42 36 41 19z m424 0 c10 -27 -3 -30 -26 -6 l-22 22
21 0 c11 0 24 -7 27 -16z m-327 -55 c0 -21 -1 -39 -2 -39 -14 0 -35 37 -35 60
0 22 4 27 18 23 14 -3 18 -14 19 -44z m-247 10 c26 1 64 -6 84 -14 31 -13 36
-19 30 -38 -3 -12 -7 -23 -8 -24 -5 -5 -106 -11 -107 -5 -3 26 -9 45 -20 58
-10 13 -14 12 -30 -2 -11 -10 -19 -24 -19 -33 0 -10 -3 -12 -10 -5 -12 12 10
75 23 67 6 -3 31 -5 57 -4z m-2047 -39 c-6 -21 -21 -35 -29 -27 -2 2 0 16 6
31 11 31 31 27 23 -4z m1512 10 c3 -5 -1 -10 -9 -10 -9 0 -16 5 -16 10 0 6 4
10 9 10 6 0 13 -4 16 -10z m1285 -50 c0 -5 -4 -10 -10 -10 -5 0 -10 5 -10 10
0 6 5 10 10 10 6 0 10 -4 10 -10z m-3815 -70 c-4 -7 -13 -7 -25 0 -10 5 -31
10 -47 10 -27 0 -27 1 12 24 l40 25 13 -25 c7 -13 10 -29 7 -34z m3176 33 c4
-79 6 -75 -51 -95 -29 -10 -55 -16 -57 -15 -2 2 3 30 10 63 11 48 18 60 38 65
48 14 59 10 60 -18z m-106 -10 c-4 -10 -10 -40 -13 -66 -3 -37 -8 -47 -19 -43
-8 3 -27 6 -41 7 -26 0 -26 1 -6 11 12 5 32 32 45 59 13 26 28 48 33 49 4 0 5
-8 1 -17z m342 -11 c7 -4 11 -26 10 -50 -1 -42 -2 -43 -37 -40 -20 1 -47 -6
-62 -16 -14 -9 -29 -13 -32 -8 -3 5 6 15 19 22 14 7 25 17 25 22 0 5 5 6 10 3
6 -4 10 10 10 34 0 36 3 41 23 41 12 0 27 -4 34 -8z m-2177 -27 c0 -17 -4 -23
-15 -19 -11 5 -12 11 -4 25 13 26 19 24 19 -6z m20 -45 c0 -5 -5 -10 -11 -10
-5 0 -7 5 -4 10 3 6 8 10 11 10 2 0 4 -4 4 -10z m1906 -43 c-14 -15 -26 -35
-26 -46 0 -19 -2 -19 -32 -7 -18 7 -42 16 -53 20 -18 7 -16 9 15 24 37 17 113
40 118 36 2 -1 -8 -13 -22 -27z m-209 17 c-3 -3 -12 -4 -19 -1 -8 3 -5 6 6 6
11 1 17 -2 13 -5z m-34 -21 c-7 -2 -19 -2 -25 0 -7 3 -2 5 12 5 14 0 19 -2 13
-5z m-1643 -26 c0 -8 -9 -22 -20 -32 -20 -18 -20 -17 -20 8 0 23 10 34 33 36
4 1 7 -5 7 -12z m140 -18 c4 -8 16 -33 28 -57 l21 -43 -22 7 c-12 3 -33 16
-47 29 -14 12 -34 25 -45 29 -19 7 -19 9 9 32 30 26 45 27 56 3z m1590 -15 c0
-16 -16 -19 -25 -4 -8 13 4 32 16 25 5 -4 9 -13 9 -21z m-2363 -38 c-12 -17
-22 -32 -22 -33 0 -1 -14 -4 -30 -8 -17 -4 -25 -3 -20 2 6 4 10 14 10 21 0 6
3 11 6 10 11 -5 40 25 35 37 -3 8 4 10 19 7 l24 -4 -22 -32z m-407 5 c0 -27
-15 -34 -52 -26 l-32 7 35 19 c44 23 49 23 49 0z m3270 -21 c19 -5 41 -5 55 0
15 6 27 6 30 0 10 -17 -29 -28 -78 -23 -61 7 -131 -21 -124 -49 3 -11 -4 -28
-17 -41 -13 -13 -25 -30 -28 -37 -4 -12 -12 -11 -48 5 -23 10 -60 18 -82 18
-22 -1 -36 2 -33 8 4 5 13 9 22 9 9 0 27 9 39 21 20 19 28 20 78 12 31 -6 56
-8 56 -6 0 2 -15 10 -32 18 l-33 13 38 7 c22 4 51 21 70 39 20 19 36 28 44 23
6 -4 25 -12 43 -17z m-1830 -1 c0 -6 -4 -7 -10 -4 -5 3 -10 11 -10 16 0 6 5 7
10 4 6 -3 10 -11 10 -16z m-780 -29 c0 -11 -4 -20 -10 -20 -5 0 -10 9 -10 20
0 11 5 20 10 20 6 0 10 -9 10 -20z m340 -10 c0 -10 5 -22 10 -25 17 -11 11
-23 -12 -27 -34 -5 -55 38 -32 63 19 21 34 16 34 -11z m2070 -1 c0 -5 -7 -9
-15 -9 -15 0 -20 12 -9 23 8 8 24 -1 24 -14z m-2169 -89 c12 0 15 -7 12 -24
-4 -20 -12 -24 -56 -29 -59 -5 -103 7 -117 33 -8 16 -6 19 18 23 15 3 50 3 77
1 28 -2 57 -4 66 -4z m-187 -16 c9 -22 8 -24 -9 -24 -8 0 -15 9 -15 20 0 24
15 27 24 4z m2546 -14 c8 -5 12 -12 8 -15 -9 -9 -48 4 -48 16 0 12 21 11 40
-1z m-3165 -37 l-6 -27 18 21 c26 31 63 15 63 -27 0 -30 -25 -53 -39 -34 -3 5
-15 14 -26 20 -10 6 -25 25 -32 42 -12 30 -12 32 8 32 18 0 20 -4 14 -27z
m175 -3 c0 -5 -4 -10 -9 -10 -6 0 -13 5 -16 10 -3 6 1 10 9 10 9 0 16 -4 16
-10z m674 -105 c-5 -26 -2 -36 9 -40 12 -5 12 -11 4 -30 -9 -18 -22 -24 -62
-28 -52 -5 -75 4 -75 30 0 13 3 13 18 2 14 -11 13 -10 -2 9 -12 14 -15 22 -6
22 7 0 10 7 6 15 -3 10 1 15 12 16 9 0 35 9 57 19 22 10 41 19 43 19 2 1 0
-15 -4 -34z m2146 -4 c26 -15 28 -20 14 -25 -9 -4 -17 -5 -18 -4 -1 2 -10 13
-20 26 -23 27 -16 28 24 3z m-2280 -81 c0 -5 -7 -10 -16 -10 -8 0 -12 5 -9 10
3 6 10 10 16 10 5 0 9 -4 9 -10z m-500 -34 c0 -3 -4 -8 -10 -11 -5 -3 -10 -1
-10 4 0 6 5 11 10 11 6 0 10 -2 10 -4z"/>
<path d="M8412 8610 c0 -19 2 -27 5 -17 2 9 2 25 0 35 -3 9 -5 1 -5 -18z"/>
<path d="M2838 7776 c-56 -12 -86 -26 -57 -26 32 0 134 22 144 31 12 12 -16
10 -87 -5z"/>
<path d="M9061 8044 c0 -11 3 -14 6 -6 3 7 2 16 -1 19 -3 4 -6 -2 -5 -13z"/>
<path d="M9386 7941 c-4 -5 -4 -21 -1 -34 5 -18 12 -23 26 -20 10 3 19 11 19
18 0 18 -37 48 -44 36z"/>
<path d="M3113 6738 c-34 -24 -57 -63 -48 -79 9 -13 61 -11 98 5 18 7 45 28
62 45 25 27 27 33 15 41 -28 18 -94 11 -127 -12z"/>
<path d="M7075 6446 c-33 -50 -9 -176 34 -176 24 0 51 56 51 107 0 79 -51 121
-85 69z"/>
<path d="M7022 6048 c-13 -13 -17 -72 -4 -66 4 3 26 13 50 23 47 20 51 29 23
45 -26 13 -54 13 -69 -2z"/>
<path d="M7062 5317 c-28 -29 -31 -73 -4 -62 9 5 43 17 75 29 31 12 57 24 57
29 0 11 -47 27 -79 27 -16 0 -37 -10 -49 -23z"/>
<path d="M3394 11136 c-21 -19 -37 -36 -34 -39 7 -8 160 14 160 23 0 13 -35
37 -61 43 -20 5 -35 -1 -65 -27z"/>
<path d="M3296 11063 c-6 -15 -8 -15 -16 -3 -8 13 -10 12 -14 0 -7 -20 -9 -39
-7 -72 1 -20 5 -26 16 -21 9 3 22 -2 30 -13 11 -15 17 -17 32 -8 10 6 44 19
76 28 31 9 57 21 57 26 0 15 -36 30 -73 30 -26 0 -39 6 -51 25 -19 29 -41 32
-50 8z"/>
<path d="M4162 11011 c-6 -4 -17 -22 -25 -40 -22 -53 -1 -130 36 -131 12 0 47
63 47 86 0 31 -20 82 -34 87 -7 3 -18 2 -24 -2z"/>
<path d="M3031 10982 c-35 -4 -46 -11 -74 -52 -23 -34 -22 -43 14 -78 74 -72
169 -40 169 57 0 28 -31 67 -43 54 -4 -3 -7 -2 -7 4 0 15 -18 19 -59 15z"/>
<path d="M5060 10805 c19 -19 36 -35 39 -35 3 0 -10 16 -29 35 -19 19 -36 35
-39 35 -3 0 10 -16 29 -35z"/>
<path d="M7895 10513 c-93 -11 -115 -15 -115 -22 0 -11 89 -49 125 -55 40 -6
65 -16 65 -28 0 -12 40 0 59 17 7 7 10 21 7 32 -6 20 -78 64 -99 62 -7 -1 -25
-4 -42 -6z"/>
<path d="M7691 10357 c-20 -37 17 -147 49 -147 7 0 2 134 -5 158 -7 20 -31 14
-44 -11z"/>
<path d="M53 9137 c-28 -41 -43 -82 -43 -115 l1 -27 15 29 c18 32 56 138 51
142 -1 2 -12 -12 -24 -29z"/>
<path d="M783 8670 c-36 -70 -39 -80 -23 -80 28 0 77 46 83 77 6 30 -2 83 -12
83 -3 0 -25 -36 -48 -80z"/>
<path d="M10810 7291 c-45 -24 -77 -59 -85 -93 -6 -24 -4 -28 13 -28 25 0 118
86 127 118 8 27 -7 28 -55 3z"/>
<path d="M10023 6120 c-41 -38 -23 -67 50 -81 53 -9 90 -2 117 23 16 15 18 23
9 34 -36 43 -140 58 -176 24z"/>
<path d="M1946 5880 c-29 -9 -66 -37 -66 -51 0 -4 27 3 60 17 33 13 66 24 74
24 8 0 18 5 21 10 7 12 -48 12 -89 0z"/>
<path d="M2080 5846 c0 -50 19 -64 22 -16 0 17 1 35 2 42 1 6 -5 13 -11 16 -9
2 -13 -10 -13 -42z"/>
<path d="M11560 5728 l0 -43 19 29 c20 31 18 56 -5 56 -10 0 -14 -13 -14 -42z"/>
<path d="M9567 5342 c-22 -24 -21 -34 4 -66 26 -33 62 -34 87 -1 12 15 30 25
45 25 33 0 77 17 77 29 0 16 -61 31 -130 31 -52 0 -71 -4 -83 -18z"/>
<path d="M8070 5048 c0 -24 12 -58 20 -58 15 0 22 41 10 55 -15 18 -30 19 -30
3z"/>
<path d="M8490 4480 c0 -15 -36 -21 -62 -11 -31 12 -100 -4 -122 -28 -14 -15
-12 -21 25 -59 23 -23 49 -42 59 -42 10 0 21 -9 25 -19 5 -17 10 -18 43 -9 45
13 92 45 92 63 0 9 15 15 48 17 l47 3 -35 19 c-19 10 -46 28 -60 41 -29 25
-60 39 -60 25z"/>
<path d="M11260 4278 c-60 -16 -67 -31 -36 -71 15 -19 42 -42 60 -51 19 -9 36
-22 39 -30 5 -12 12 -12 48 -2 62 19 89 47 89 93 0 22 -6 48 -14 58 -12 17
-18 18 -51 7 -25 -7 -44 -8 -56 -2 -21 12 -32 11 -79 -2z"/>
<path d="M10575 4014 c26 -20 75 -46 75 -40 0 8 -74 56 -85 56 -5 0 -1 -8 10
-16z"/>
</g>
</svg>
